<svg width="100.000000" height="100.000000" viewBox="0 0 100 100" fill="none" xmlns="http://www.w3.org/2000/svg" xmlns:xlink="http://www.w3.org/1999/xlink">
	<desc>
			Created with Pixso.
	</desc>
	<defs>
		<clipPath id="clip342_1562">
			<rect id="baby-carriage" width="100.000000" height="100.000000" fill="white" fill-opacity="0"/>
		</clipPath>
	</defs>
	<rect id="baby-carriage" width="100.000000" height="100.000000" fill="#FFFFFF" fill-opacity="0"/>
	<g clip-path="url(#clip342_1562)">
		<path id="Vector" d="M23.8281 41.4062L23.8281 38.4766C23.8281 33.6301 19.8855 29.6875 15.0391 29.6875L2.92969 29.6875C1.3103 29.6875 0 30.9978 0 32.6172C0 34.2366 1.3103 35.5469 2.92969 35.5469L15.0391 35.5469C16.6555 35.5469 17.9688 36.8601 17.9688 38.4766C17.9688 39.0098 17.9688 43.8433 17.9688 44.3359C17.9688 58.5483 29.2373 70.0522 43.3152 70.6001L53.5619 77.1804L43.2096 83.8284C41.8408 82.9478 40.222 82.4219 38.4766 82.4219C33.6301 82.4219 29.6875 86.3645 29.6875 91.2109C29.6875 96.0574 33.6301 100 38.4766 100C42.291 100 45.5125 97.5435 46.726 94.1406L71.2428 94.1406C72.4563 97.5435 75.6777 100 79.4922 100C84.3386 100 88.2812 96.0574 88.2812 91.2109C88.2812 86.3645 84.3386 82.4219 79.4922 82.4219C77.7467 82.4219 76.1279 82.9478 74.759 83.8286L64.4066 77.1807L74.6533 70.6003C88.7314 70.0522 100 58.5483 100 44.3359L100 41.4062L23.8281 41.4062ZM63.6482 70.7031L58.9844 73.6982L54.3206 70.7031L63.6482 70.7031ZM70.848 88.2812L47.1207 88.2812L58.9844 80.6626L70.848 88.2812Z" fill="#F25C3A" fill-opacity="1.000000" fill-rule="nonzero"/>
		<path id="Vector" d="M67.7734 0C66.1555 0 64.8438 1.31177 64.8438 2.92969L64.8438 31.4041L88.391 7.85693C82.8027 3.19849 75.6176 0 67.7734 0Z" fill="#F25C3A" fill-opacity="1.000000" fill-rule="nonzero"/>
		<path id="Vector" d="M92.5338 11.9995L68.9866 35.5469L100 35.5469L100 32.6172C100 24.7729 97.1923 17.5879 92.5338 11.9995Z" fill="#F25C3A" fill-opacity="1.000000" fill-rule="nonzero"/>
	</g>
</svg>
