<svg width="100.000000" height="100.000000" viewBox="0 0 100 100" fill="none" xmlns="http://www.w3.org/2000/svg" xmlns:xlink="http://www.w3.org/1999/xlink">
	<desc>
			Created with Pixso.
	</desc>
	<defs>
		<clipPath id="clip342_1572">
			<rect id="bar-chart" width="100.000000" height="100.000000" fill="white" fill-opacity="0"/>
		</clipPath>
	</defs>
	<rect id="bar-chart" width="100.000000" height="100.000000" fill="#FFFFFF" fill-opacity="0"/>
	<g clip-path="url(#clip342_1572)">
		<path id="Vector" d="M99.7375 55.3833L93.4875 46.0083C92.9078 45.1377 91.4672 45.1377 90.8875 46.0083L84.6375 55.3833C84.3172 55.8628 84.2875 56.4785 84.5594 56.9863C84.8313 57.4941 85.361 57.813 85.9375 57.813L87.2078 57.813C84.8875 76.3442 68.8625 90.6255 50 90.6255C34.6078 90.6255 20.5438 80.98 15.0031 66.6255C14.7703 66.0239 14.1922 65.6255 13.5453 65.6255L6.91095 65.6221C6.41095 65.6221 5.94064 65.8613 5.64688 66.2661C5.35315 66.6724 5.27032 67.1943 5.42502 67.6675C11.7313 87.0083 29.6453 100 50 100C74.0672 100 94.2781 81.5879 96.6438 57.813L98.4375 57.813C99.0141 57.813 99.5438 57.4956 99.8156 56.9878C100.088 56.48 100.056 55.8628 99.7375 55.3833Z" fill="#F25C3A" fill-opacity="1.000000" fill-rule="nonzero"/>
		<path id="Vector" d="M7.8125 54.6875C8.33438 54.6875 8.8219 54.4268 9.11252 53.9922L15.3625 44.6172C15.6828 44.1377 15.7125 43.522 15.4406 43.0142C15.1688 42.5049 14.6391 42.1875 14.0625 42.1875L12.7906 42.1875C15.1125 23.6562 31.1375 9.375 50 9.375C61.9062 9.375 72.8422 14.8438 80.0047 24.3779C80.3297 24.8076 80.8484 25.0498 81.3875 24.9971C81.925 24.9517 82.3984 24.6328 82.6453 24.1533L85.7656 18.0654C86.0563 17.5015 85.975 16.8154 85.5609 16.3359C76.6375 5.95459 63.6766 0 50 0C25.9328 0 5.72034 18.4126 3.35626 42.1875L1.5625 42.1875C0.985962 42.1875 0.456268 42.5049 0.184387 43.0127C-0.0874939 43.5205 -0.0578003 44.1377 0.262512 44.6157L6.51251 53.9907C6.80313 54.4268 7.29065 54.6875 7.8125 54.6875Z" fill="#F25C3A" fill-opacity="1.000000" fill-rule="nonzero"/>
		<path id="Vector" d="M85.5375 34.8721C86.1953 36.8174 86.6953 38.8359 87.0219 40.8721C87.1437 41.6313 87.7968 42.1875 88.5656 42.1875L94.8859 42.186C95.3375 42.186 95.7672 41.9907 96.0641 41.6504C96.3609 41.3096 96.4953 40.8564 96.4328 40.4097C95.8156 35.9331 94.5531 31.5801 92.6828 27.4707C92.4484 26.9565 91.9547 26.6079 91.3922 26.561C90.8312 26.5 90.2844 26.7734 89.9687 27.2407L85.7265 33.4956C85.45 33.8984 85.3812 34.4097 85.5375 34.8721Z" fill="#F25C3A" fill-opacity="1.000000" fill-rule="nonzero"/>
		<path id="Vector" d="M95.3125 14.0625L87.5 14.0625L87.5 17.1875L92.0297 17.1875L74.2563 39.0625L54.6875 39.0625C54.2938 39.0625 53.9141 39.2124 53.6234 39.4814L32.1984 59.375L3.125 59.375L3.125 62.5L32.8125 62.5C33.2062 62.5 33.5875 62.3501 33.8766 62.0811L55.3016 42.1875L75 42.1875C75.4703 42.1875 75.9156 41.9751 76.2125 41.6108L93.75 20.0264L93.75 23.4375L96.875 23.4375L96.875 15.625C96.875 14.7607 96.1766 14.0625 95.3125 14.0625Z" fill="#F25C3A" fill-opacity="1.000000" fill-rule="nonzero"/>
		<path id="Vector" d="M42.1875 20.3125L42.1875 46.6265L53.0891 36.2529C53.3797 35.978 53.7641 35.8252 54.1641 35.8232L62.5 35.8047L62.5 20.3125L42.1875 20.3125Z" fill="#F25C3A" fill-opacity="1.000000" fill-rule="nonzero"/>
		<path id="Vector" d="M39.0625 29.6875L21.875 29.6875L21.875 56.25L32.0734 56.25L39.0625 49.6001L39.0625 29.6875Z" fill="#F25C3A" fill-opacity="1.000000" fill-rule="nonzero"/>
		<path id="Vector" d="M65.625 45.3125L65.625 83.6826C72.4344 80.1655 78 74.4346 81.25 67.4033L81.25 45.3125L65.625 45.3125Z" fill="#F25C3A" fill-opacity="1.000000" fill-rule="nonzero"/>
		<path id="Vector" d="M39.0625 61.9438L35.5719 65.2046C35.2828 65.4736 34.9016 65.625 34.5047 65.625L21.875 65.625L21.875 72.875C26.1016 78.8486 32.1609 83.3452 39.0625 85.6875L39.0625 61.9438Z" fill="#F25C3A" fill-opacity="1.000000" fill-rule="nonzero"/>
		<path id="Vector" d="M62.5 45.3125L56.8672 45.3125L42.1875 59.0249L42.1875 86.5859C44.7188 87.1846 47.3375 87.5 50 87.5C54.3734 87.5 58.5984 86.6514 62.5 85.1045L62.5 45.3125Z" fill="#F25C3A" fill-opacity="1.000000" fill-rule="nonzero"/>
	</g>
</svg>
