<svg width="100.000244" height="93.165039" viewBox="0 0 100 93.165" fill="none" xmlns="http://www.w3.org/2000/svg" xmlns:xlink="http://www.w3.org/1999/xlink">
	<desc>
			Created with Pixso.
	</desc>
	<defs/>
	<path id="Vector" d="M98.4446 0.785645C97.4641 0.0483398 96.1946 -0.187012 95.0159 0.151855C90.491 1.45117 84.7239 1.08398 77.4226 0.620117C72.8511 0.32959 67.6699 0 61.719 0C57.0559 0 52.8657 2.05615 50.0002 5.30615C47.1345 2.05615 42.9453 0 38.2812 0C32.3313 0 27.1494 0.32959 22.5776 0.620117C15.2764 1.08496 9.50928 1.45215 4.98438 0.151855C3.80566 -0.187012 2.53613 0.0483398 1.5564 0.785645C0.576172 1.52441 0 2.67969 0 3.90625L0 68.7104C-0.0107422 72.8916 1.60986 76.8242 4.5625 79.7847C7.51514 82.7446 11.4441 84.375 15.625 84.375L43.9453 84.375C46.103 84.375 47.8516 82.6265 47.8516 80.4688C47.8516 78.3115 46.103 76.5625 43.9453 76.5625L15.625 76.5625C13.5347 76.5625 11.5701 75.748 10.0938 74.2676C8.61743 72.7876 7.80713 70.8208 7.8125 68.7202L7.8125 66.6484C10.1128 67.9819 12.78 68.75 15.625 68.75L44.7266 68.75C45.595 68.75 46.1892 69.2896 46.4563 69.7939C47.1575 71.1177 48.5107 71.873 49.9116 71.873C50.5281 71.873 51.1538 71.7271 51.7358 71.418C52.9124 70.7954 53.6379 69.6572 53.7852 68.4297C53.8613 68.1255 53.9065 67.8086 53.9065 67.4805L53.9065 15.625C53.9065 11.3174 57.4106 7.8125 61.719 7.8125C67.4211 7.8125 72.4709 8.13379 76.9265 8.41699C82.7532 8.7876 87.6948 9.10205 92.1877 8.61426L92.1877 36.7188C92.1877 38.8765 93.9363 40.625 96.094 40.625C98.2515 40.625 100 38.8765 100 36.7188L100 3.90625C100 2.67969 99.4241 1.52441 98.4446 0.785645ZM15.625 60.9375C11.3176 60.9375 7.8125 57.4326 7.8125 53.125L7.8125 8.61426C12.3054 9.10205 17.2463 8.7876 23.073 8.41699C27.5293 8.13379 32.5791 7.8125 38.2812 7.8125C42.5889 7.8125 46.0938 11.3174 46.0938 15.625L46.0938 61.0337C45.6453 60.9702 45.189 60.9375 44.7266 60.9375L15.625 60.9375ZM39.4531 22.0703C39.4531 24.228 37.7046 25.9766 35.5469 25.9766L18.5547 25.9766C16.3972 25.9766 14.6484 24.228 14.6484 22.0703C14.6484 19.9126 16.3972 18.1641 18.5547 18.1641L35.5469 18.1641C37.7046 18.1641 39.4531 19.9126 39.4531 22.0703ZM33.5938 37.6953C33.5938 39.853 31.8452 41.6016 29.6875 41.6016L18.5547 41.6016C16.3972 41.6016 14.6484 39.853 14.6484 37.6953C14.6484 35.5376 16.3972 33.7891 18.5547 33.7891L29.6875 33.7891C31.8452 33.7891 33.5938 35.5376 33.5938 37.6953ZM79.9983 49.7188L58.5527 71.1167C58.0972 71.5713 57.7607 72.1313 57.5737 72.7471L52.9031 88.1226C52.4895 89.4863 52.8506 90.9668 53.8445 91.9863C54.5901 92.75 55.6023 93.165 56.6416 93.165C56.9888 93.165 57.3396 93.1187 57.6836 93.0225L73.4507 88.6553C74.0991 88.4751 74.6904 88.1313 75.1672 87.6553L96.5686 66.2949C101.137 61.7256 101.137 54.291 96.5686 49.7217C91.9993 45.1523 84.5645 45.1523 79.9983 49.7188ZM70.3745 81.3999L62.4429 83.5972L64.7637 75.9556L79.2344 61.5166L84.7598 67.042L70.3745 81.3999ZM91.0464 60.7676L90.2896 61.5229L84.7651 55.9985L85.5195 55.2461C87.0425 53.7227 89.5205 53.7227 91.0432 55.2461C92.5669 56.769 92.5669 59.2471 91.0464 60.7676Z" fill="#F25C3A" fill-opacity="1.000000" fill-rule="nonzero"/>
</svg>
