<svg width="100.000000" height="100.000000" viewBox="0 0 100 100" fill="none" xmlns="http://www.w3.org/2000/svg" xmlns:xlink="http://www.w3.org/1999/xlink">
	<desc>
			Created with Pixso.
	</desc>
	<defs>
		<clipPath id="clip342_1558">
			<rect id="brain" width="100.000000" height="100.000000" fill="white" fill-opacity="0"/>
		</clipPath>
	</defs>
	<rect id="brain" width="100.000000" height="100.000000" fill="#FFFFFF" fill-opacity="0"/>
	<g clip-path="url(#clip342_1558)">
		<path id="Vector" d="M39.5114 0C38.7414 0 38.0521 0.166504 37.4469 0.502686C34.8293 1.02051 33.1515 2.6814 31.9124 3.90698C31.0886 4.72241 30.3775 5.42676 29.7622 5.42676L29.7605 5.42676C28.9703 5.37646 28.2458 5.34619 27.5784 5.34619C23.019 5.34619 20.6368 6.93481 18.4781 11.4187C18.4075 11.5632 18.3301 11.6555 18.2579 11.7683L19.5625 11.7683C25.1255 11.7683 29.6495 16.2922 29.6495 21.8555C29.6495 22.7852 28.8964 23.5366 27.9684 23.5366C27.0403 23.5366 26.2872 22.7852 26.2872 21.8555C26.2872 18.1467 23.2712 15.1306 19.5625 15.1306L11.6256 15.1306C7.54205 18.1533 5.02533 23.5886 5.35651 29.0625C5.51788 31.7322 4.79163 36.1152 3.49036 38.1377C0.284363 43.1274 0.284363 50.0974 3.49036 55.0872C3.98633 55.8572 4.71259 56.7534 5.55322 57.7922C7.0528 59.645 9.56451 62.7434 9.47876 64.1624C9.09711 70.4431 12.9302 77.6807 18.0225 80.2949C18.9388 80.7656 19.0934 81.2415 19.4398 82.6821C19.4784 82.8386 19.5204 83.0083 19.5625 83.1797L19.5625 81.0767C19.5625 74.5889 24.8414 69.3083 31.3307 69.3083C32.2587 69.3083 33.0119 70.0598 33.0119 70.9895C33.0119 71.9192 32.2587 72.6707 31.3307 72.6707C26.6957 72.6707 22.9248 76.4417 22.9248 81.0767L22.9248 88.5713C23.8226 89.1917 24.7422 89.5447 25.5206 89.8406C27.0942 90.4375 27.7448 90.6863 27.9835 92.4111C28.6392 97.1621 31.4535 100 35.5118 100C41.4868 100 48.1426 93.6082 48.1426 84.439L48.1426 22.2354C48.1426 23.165 47.3894 23.9165 46.4614 23.9165C40.8983 23.9165 36.3743 28.4404 36.3743 34.0037C36.3743 41.4192 30.3405 47.4531 22.9248 47.4531C21.9968 47.4531 21.2437 46.7014 21.2437 45.7717C21.2437 44.842 21.9968 44.0906 22.9248 44.0906C28.4879 44.0906 33.0119 39.5667 33.0119 34.0037C33.0119 26.5879 39.0457 20.5542 46.4614 20.5542C47.3894 20.5542 48.1426 21.3057 48.1426 22.2354L48.1426 7.10474C48.1442 3.7439 42.9982 0 39.5114 0ZM34.6948 55.4521C34.6948 52.2007 35.9624 49.1426 38.2639 46.8428C38.9213 46.1853 39.9838 46.1853 40.6411 46.8428C41.2985 47.5 41.2985 48.5625 40.6411 49.22C38.9751 50.886 38.0571 53.1001 38.0571 55.4521C38.0571 57.804 38.9751 60.0181 40.6411 61.6843C41.2985 62.3416 41.2985 63.4041 40.6411 64.0613C38.9751 65.7275 38.0571 67.9417 38.0571 70.2935C38.0571 72.6455 38.9751 74.8596 40.6411 76.5256C41.2985 77.1831 41.2985 78.2456 40.6411 78.9028C40.3133 79.2307 39.8829 79.3955 39.4525 79.3955C39.0222 79.3955 38.5917 79.2307 38.2639 78.9028C35.9624 76.603 34.6948 73.5432 34.6948 70.2935C34.6948 67.5735 35.5942 64.9944 37.2334 62.8728C35.5925 60.7544 34.6948 58.1738 34.6948 55.4521ZM22.666 59.6499C22.012 61.427 22.9248 63.4058 24.7001 64.0598C25.571 64.3826 26.0165 65.3491 25.6937 66.22C25.4432 66.8975 24.801 67.3179 24.1168 67.3179C23.9235 67.3179 23.7267 67.2842 23.5334 67.2136C20.0198 65.9141 18.2158 62.0002 19.5104 58.4866C19.5104 58.4849 19.5104 58.4832 19.5104 58.4832C20.166 56.708 19.2531 54.7292 17.4761 54.0735C16.6053 53.7524 16.1598 52.7839 16.4825 51.9131C16.8036 51.0422 17.7754 50.6001 18.6429 50.918C22.1599 52.2209 23.9638 56.1362 22.666 59.6499ZM25.7291 33.8875C24.717 36.6296 22.1111 38.3308 19.3456 38.3308C18.5656 38.3308 17.7737 38.1948 17.0004 37.9106C15.22 37.25 13.2463 38.1663 12.5889 39.9431C12.3384 40.6206 11.6962 41.041 11.012 41.041C10.8187 41.041 10.6219 41.0073 10.4303 40.9368C9.55945 40.6157 9.11395 39.6472 9.43506 38.7764C10.7312 35.2627 14.6501 33.4639 18.1638 34.7534C19.9374 35.4106 21.9178 34.4995 22.5751 32.7207C22.8962 31.8499 23.8663 31.4062 24.7355 31.7256C25.6063 32.0483 26.0518 33.0166 25.7291 33.8875Z" fill="#F25C3A" fill-opacity="1.000000" fill-rule="nonzero"/>
		<path id="Vector" d="M96.5096 37.7576C95.21 35.7368 94.4821 31.3506 94.6451 28.6826C94.9763 23.207 92.4596 17.7734 88.376 14.7507L80.4375 14.7507C77.6568 14.7507 75.394 17.0137 75.394 19.7942C75.394 20.7239 74.6408 21.4753 73.7128 21.4753C72.7848 21.4753 72.0316 20.7239 72.0316 19.7942C72.0316 15.1592 75.8025 11.3884 80.4375 11.3884L81.7421 11.3884C81.6698 11.2756 81.5925 11.1831 81.5236 11.0403C79.3666 6.55664 76.9844 4.96777 72.425 4.96777C71.7576 4.96777 71.033 4.99805 70.2058 5.05029C69.7334 5.05029 68.9987 4.26172 68.2859 3.50195C67.0402 2.17041 65.3758 0.388428 62.738 0.0856934L61.889 0C56.4521 0 51.8574 3.07983 51.8574 6.72461L51.8574 84.0591C51.8574 93.2283 58.5132 99.6184 64.4882 99.6201C64.4882 99.6201 64.4882 99.6201 64.4898 99.6201C68.5465 99.6201 71.3591 96.7822 72.0165 92.0312C72.2552 90.3064 72.9058 90.0576 74.4794 89.4607C75.2578 89.1648 76.1774 88.8118 77.0751 88.1914L77.0751 80.6968C77.0751 76.0618 73.3043 72.2908 68.6693 72.2908C67.7412 72.2908 66.988 71.5393 66.988 70.6096C66.988 69.6799 67.7412 68.9285 68.6693 68.9285C75.1586 68.9285 80.4375 74.209 80.4375 80.6968L80.4375 82.8015C80.4812 82.6301 80.5233 82.4602 80.5619 82.3022C80.9099 80.863 81.0629 80.384 81.9791 79.915C87.0698 77.3008 90.9028 70.0667 90.5229 63.7822C90.5078 63.52 90.6036 63.1855 90.7432 62.8257L85.7248 57.0039C83.8806 53.9441 80.6476 52.1167 77.0751 52.1167C69.6594 52.1167 63.6257 46.0828 63.6257 38.6672C63.6257 37.7375 64.3788 36.9861 65.3069 36.9861C66.2349 36.9861 66.988 37.7375 66.988 38.6672C66.988 44.2302 71.5121 48.7542 77.0751 48.7542C81.7875 48.7542 86.0577 51.1399 88.5273 55.1445L92.5605 59.8181C93.2061 58.9438 93.8953 58.0933 94.4468 57.4106C95.2874 56.3733 96.0137 55.4773 96.5096 54.7073C99.7156 49.7175 99.7156 42.7473 96.5096 37.7576ZM64.004 52.0813C68.4389 56.5178 68.4389 63.7368 64.004 68.1719C62.4892 69.6865 61.6537 71.7007 61.6537 73.8391C61.6537 75.9775 62.4892 77.9917 64.004 79.5063C64.6613 80.1638 64.6613 81.2263 64.004 81.8835C63.6761 82.2131 63.2457 82.3779 62.8154 82.3779C62.385 82.3779 61.9546 82.2131 61.6268 81.8853C59.4766 79.7351 58.2913 76.877 58.2913 73.8408C58.2913 70.8047 59.4766 67.9465 61.6268 65.7964C64.7504 62.6711 64.7504 57.5854 61.6268 54.4602C60.9694 53.8027 60.9694 52.7402 61.6268 52.083C62.2841 51.4255 63.3483 51.4255 64.004 52.0813ZM84.0706 39.407C83.4081 39.5212 82.7491 39.5801 82.0985 39.5801C76.6783 39.5801 71.8652 35.6848 70.8951 30.167C70.5236 28.0571 69.3552 26.218 67.6034 24.989C65.8499 23.7617 63.7249 23.2844 61.6133 23.6609C60.6971 23.8123 59.8262 23.2087 59.6665 22.2942C59.5051 21.3796 60.1171 20.5071 61.0316 20.3474C64.0292 19.8245 67.0469 20.4937 69.5334 22.2371C72.0198 23.9805 73.6791 26.5913 74.2054 29.5854C74.9686 33.938 79.1363 36.8633 83.4872 36.0933C84.4067 35.9336 85.2742 36.5454 85.434 37.46C85.597 38.3748 84.9851 39.2471 84.0706 39.407Z" fill="#F25C3A" fill-opacity="1.000000" fill-rule="nonzero"/>
	</g>
</svg>
