<svg width="44.000000" height="44.000000" viewBox="0 0 44 44" fill="none" xmlns="http://www.w3.org/2000/svg" xmlns:xlink="http://www.w3.org/1999/xlink">
	<desc>
			Created with Pixso.
	</desc>
	<defs>
		<clipPath id="clip342_1659">
			<rect id="chronometer" width="44.000000" height="44.000000" fill="white" fill-opacity="0"/>
		</clipPath>
	</defs>
	<rect id="chronometer" width="44.000000" height="44.000000" fill="#FFFFFF" fill-opacity="0"/>
	<g clip-path="url(#clip342_1659)">
		<path id="Vector" d="M41.9674 27.0176C41.0819 35.9331 33.8583 43.0981 24.9368 43.918C14.3906 44.8872 5.39774 37.1333 4.35461 27.0552L2.49597 27.0552C1.366 27.0552 0.65976 25.8315 1.22485 24.853L5.38171 17.6548C5.94672 16.6763 7.35904 16.6768 7.92398 17.6548L12.08 24.8535C12.645 25.832 11.9388 27.0552 10.8089 27.0552L9.1908 27.0552C10.242 34.5796 17.2472 40.2231 25.279 39.0459C31.2224 38.1748 36.0433 33.4854 37.0535 27.564C38.5656 18.7017 31.7455 10.9883 23.1582 10.9883C20.3734 10.9883 17.6856 11.7959 15.3767 13.3262C14.3052 14.0361 12.8199 13.8955 12.0338 12.8789C11.1778 11.7715 11.4451 10.1904 12.5864 9.41992C15.0636 7.74658 17.8718 6.70068 20.814 6.33643L20.814 3.60791L18.8883 3.60791C18.2258 3.60791 17.6887 3.0708 17.6887 2.4082L17.6887 1.19971C17.6887 0.537109 18.2257 0 18.8883 0L27.8185 0C28.481 0 29.0182 0.537109 29.0182 1.19971L29.0182 2.4082C29.0182 3.0708 28.4811 3.60791 27.8185 3.60791L25.6975 3.60791L25.6975 6.36475C35.5365 7.69238 43.0009 16.6123 41.9674 27.0176ZM42.5887 8.8623L38.9715 5.51855C38.4849 5.06885 37.726 5.09863 37.2762 5.58545L36.3194 6.62061C35.8696 7.10693 35.8994 7.86621 36.386 8.31592L40.0032 11.6592C40.4898 12.1089 41.2487 12.0791 41.6985 11.5928L42.6554 10.5576C43.1052 10.0708 43.0753 9.31201 42.5887 8.8623ZM23.1013 13.4546L23.1013 25.1875L34.7171 25.1875C34.7173 18.042 29.2961 13.4546 23.1013 13.4546Z" fill="#F25C3A" fill-opacity="1.000000" fill-rule="nonzero"/>
	</g>
</svg>
