<svg width="24.000000" height="24.000000" viewBox="0 0 24 24" fill="none" xmlns="http://www.w3.org/2000/svg" xmlns:xlink="http://www.w3.org/1999/xlink">
	<defs/>
	<path id="Vector" d="M12 0C5.37256 0 0 5.3728 0 12C0 18.6272 5.37256 24 12 24C18.6274 24 24 18.6272 24 12C24 5.3728 18.6274 0 12 0ZM12.0171 3.64917C14.3545 3.65564 16.2307 5.5675 16.2185 7.93066C16.2068 10.2394 14.3 12.1105 11.9666 12.1027C9.65698 12.0947 7.7627 10.1799 7.77661 7.86658C7.78955 5.52795 9.68481 3.64282 12.0171 3.64917ZM16.7515 13.7633C16.2346 14.2939 15.6123 14.678 14.9214 14.9458C14.2683 15.199 13.5527 15.3264 12.844 15.4113C12.9514 15.5277 13.0017 15.585 13.0686 15.6517C14.03 16.6183 14.9961 17.5801 15.9543 18.5493C16.281 18.8799 16.3489 19.2894 16.1692 19.6731C15.9731 20.093 15.533 20.3689 15.1011 20.3392C14.8274 20.3203 14.614 20.1846 14.4248 19.9938C13.699 19.2635 12.9595 18.5464 12.249 17.8025C12.0415 17.5859 11.9424 17.6272 11.7593 17.8152C11.0295 18.567 10.2874 19.3068 9.54126 20.0426C9.2063 20.3732 8.80737 20.433 8.41846 20.244C8.00537 20.0441 7.74268 19.6221 7.7627 19.1975C7.7771 18.9113 7.91797 18.6918 8.11475 18.4958C9.06665 17.5459 10.0156 16.593 10.9648 15.6409C11.0281 15.5778 11.0864 15.5107 11.178 15.4126C9.8833 15.2772 8.71582 14.9586 7.71631 14.1771C7.59204 14.0798 7.46411 13.9861 7.35132 13.8771C6.91357 13.4569 6.86963 12.9755 7.21558 12.48C7.51172 12.0558 8.00879 11.9423 8.52563 12.1862C8.62573 12.233 8.72095 12.2925 8.81226 12.3552C10.6748 13.6351 13.2336 13.6703 15.1038 12.4125C15.2888 12.2711 15.4868 12.1547 15.7166 12.0959C16.1624 11.9811 16.5789 12.1454 16.8179 12.5358C17.0918 12.9818 17.0884 13.4169 16.7515 13.7633Z" fill="#927398" fill-opacity="1.000000" fill-rule="nonzero"/>
</svg>
