<svg width="100.000000" height="100.000000" viewBox="0 0 100 100" fill="none" xmlns="http://www.w3.org/2000/svg" xmlns:xlink="http://www.w3.org/1999/xlink">
	<desc>
			Created with Pixso.
	</desc>
	<defs>
		<clipPath id="clip342_1610">
			<rect id="content" width="100.000000" height="100.000000" fill="white" fill-opacity="0"/>
		</clipPath>
	</defs>
	<rect id="content" width="100.000000" height="100.000000" fill="#FFFFFF" fill-opacity="0"/>
	<g clip-path="url(#clip342_1610)">
		<path id="Vector" d="M98.2492 4.30127C97.2688 3.56396 95.9993 3.32861 94.8206 3.66748C90.2955 4.9668 84.5284 4.59961 77.2271 4.13574C72.6556 3.84521 67.4745 3.51562 61.5235 3.51562C56.8604 3.51562 52.6703 5.57178 49.8047 8.82178C46.9391 5.57178 42.7498 3.51562 38.086 3.51562C32.1358 3.51562 26.9539 3.84521 22.3824 4.13574C15.081 4.60059 9.31396 4.96777 4.78897 3.66748C3.61023 3.32861 2.3407 3.56396 1.36108 4.30127C0.380707 5.04004 -0.195312 6.19531 -0.195312 7.42188L-0.195312 72.2261C-0.205994 76.4072 1.41449 80.3398 4.36707 83.3003C7.31964 86.2603 11.2488 87.8906 15.4297 87.8906L43.7501 87.8906C45.9077 87.8906 47.6563 86.1421 47.6563 83.9844C47.6563 81.8271 45.9077 80.0781 43.7501 80.0781L15.4297 80.0781C13.3392 80.0781 11.3747 79.2637 9.89838 77.7832C8.42209 76.3032 7.61185 74.3364 7.61719 72.2358L7.61719 70.1641C9.91745 71.4976 12.5847 72.2656 15.4297 72.2656L44.5313 72.2656C45.3995 72.2656 45.9939 72.8052 46.2609 73.3096C46.962 74.6333 48.3155 75.3887 49.7162 75.3887C50.3327 75.3887 50.9583 75.2427 51.5404 74.9336C52.7169 74.311 53.4424 73.1729 53.5897 71.9453C53.666 71.6411 53.711 71.3242 53.711 70.9961L53.711 19.1406C53.711 14.833 57.2152 11.3281 61.5235 11.3281C67.2257 11.3281 72.2756 11.6494 76.7312 11.9326C82.5578 12.3032 87.4993 12.6177 91.9923 12.1299L91.9923 40.2344C91.9923 42.3921 93.741 44.1406 95.8986 44.1406C98.0562 44.1406 99.8048 42.3921 99.8048 40.2344L99.8048 7.42188C99.8048 6.19531 99.2288 5.04004 98.2492 4.30127ZM15.4297 64.4531C11.1221 64.4531 7.61719 60.9482 7.61719 56.6406L7.61719 12.1299C12.1101 12.6177 17.051 12.3032 22.8775 11.9326C27.3339 11.6494 32.3838 11.3281 38.086 11.3281C42.3936 11.3281 45.8985 14.833 45.8985 19.1406L45.8985 64.5493C45.4499 64.4858 44.9937 64.4531 44.5313 64.4531L15.4297 64.4531ZM39.2579 25.5859C39.2579 27.7437 37.5092 29.4922 35.3516 29.4922L18.3594 29.4922C16.2018 29.4922 14.4531 27.7437 14.4531 25.5859C14.4531 23.4282 16.2018 21.6797 18.3594 21.6797L35.3516 21.6797C37.5092 21.6797 39.2579 23.4282 39.2579 25.5859ZM33.3985 41.2109C33.3985 43.3687 31.6498 45.1172 29.4922 45.1172L18.3594 45.1172C16.2018 45.1172 14.4531 43.3687 14.4531 41.2109C14.4531 39.0532 16.2018 37.3047 18.3594 37.3047L29.4922 37.3047C31.6498 37.3047 33.3985 39.0532 33.3985 41.2109ZM79.8028 53.2344L58.3573 74.6323C57.9018 75.0869 57.5654 75.647 57.3784 76.2627L52.7077 91.6382C52.2942 93.002 52.6551 94.4824 53.6492 95.502C54.3946 96.2656 55.407 96.6807 56.4461 96.6807C56.7933 96.6807 57.1442 96.6343 57.4883 96.5381L73.2552 92.1709C73.9037 91.9907 74.495 91.647 74.9719 91.1709L96.3731 69.8105C100.942 65.2412 100.942 57.8066 96.3731 53.2373C91.8039 48.668 84.369 48.668 79.8028 53.2344ZM70.1791 84.9155L62.2476 87.1128L64.5684 79.4712L79.0391 65.0322L84.5643 70.5576L70.1791 84.9155ZM90.851 64.2832L90.0941 65.0386L84.5696 59.5142L85.3242 58.7617C86.847 57.2383 89.3251 57.2383 90.8479 58.7617C92.3715 60.2847 92.3715 62.7627 90.851 64.2832Z" fill="#F25C3A" fill-opacity="1.000000" fill-rule="nonzero"/>
	</g>
</svg>
