<svg width="100.000000" height="100.000000" viewBox="0 0 100 100" fill="none" xmlns="http://www.w3.org/2000/svg" xmlns:xlink="http://www.w3.org/1999/xlink">
	<desc>
			Created with Pixso.
	</desc>
	<defs>
		<clipPath id="clip342_1546">
			<rect id="drawing" width="100.000000" height="100.000000" fill="white" fill-opacity="0"/>
		</clipPath>
	</defs>
	<rect id="drawing" width="100.000000" height="100.000000" fill="#FFFFFF" fill-opacity="0"/>
	<g clip-path="url(#clip342_1546)">
		<path id="Vector" d="M86.5204 32.3418L67.6677 13.4907L62.9548 18.2034L81.8077 37.0564L86.5204 32.3418Z" fill="#F25C3A" fill-opacity="1.000000" fill-rule="nonzero"/>
		<path id="Vector" d="M97.8088 21.0542C99.2003 19.6646 99.967 17.813 99.967 15.8481C99.967 13.8801 99.2005 12.0303 97.8088 10.6404L89.3715 2.20142C87.9816 0.809814 86.1318 0.0432129 84.1637 0.0432129C82.1973 0.0432129 80.3475 0.809814 78.9576 2.20142L70.0237 11.1338L88.8766 29.9868L97.8088 21.0542Z" fill="#F25C3A" fill-opacity="1.000000" fill-rule="nonzero"/>
		<path id="Vector" d="M3.57248 78.012L0.0379028 98.043C-0.0570068 98.5796 0.116241 99.1279 0.499573 99.5112C0.816162 99.8279 1.23953 99.9995 1.67776 99.9995C1.77444 99.9995 1.87109 99.991 1.96777 99.9744L21.2822 96.5649L3.59415 77.947C3.58908 77.9685 3.57581 77.9885 3.57248 78.012Z" fill="#F25C3A" fill-opacity="1.000000" fill-rule="nonzero"/>
		<path id="Vector" d="M13.8066 83.8604C13.8166 83.8486 13.8199 83.8337 13.8316 83.8235L68.8254 28.8298C68.832 28.8213 68.8438 28.8198 68.8504 28.8132L60.598 20.5608L5.76419 75.3945L13.8066 83.8604Z" fill="#F25C3A" fill-opacity="1.000000" fill-rule="nonzero"/>
		<path id="Vector" d="M71.1985 31.1604C71.1919 31.1687 71.1885 31.1787 71.1819 31.1853L16.1881 86.1792C16.1565 86.2126 16.1131 86.2224 16.0782 86.2524L24.1339 94.7314L79.4509 39.4128L71.1985 31.1604Z" fill="#F25C3A" fill-opacity="1.000000" fill-rule="nonzero"/>
		<path id="Vector" d="M3.8187 22.6738L12.0695 14.4248C12.7195 13.7749 13.7744 13.7749 14.4259 14.4248C15.0758 15.0767 15.0758 16.1313 14.4259 16.7812L6.17685 25.0303L8.5332 27.3884L14.4259 21.4958C15.0758 20.8459 16.1308 20.8459 16.7823 21.4958C17.4322 22.1472 17.4322 23.2021 16.7823 23.8521L10.8896 29.7449L13.2477 32.1013L21.4968 23.8521C22.1467 23.2021 23.2017 23.2021 23.8531 23.8521C24.5049 24.5039 24.5049 25.5586 23.8531 26.2085L15.6041 34.4575L17.9605 36.814L23.8531 30.9231C24.5049 30.2712 25.558 30.2712 26.2095 30.9231C26.8612 31.573 26.8612 32.6279 26.2095 33.2793L20.3168 39.1721L22.675 41.5286L30.9223 33.2793C31.574 32.6277 32.6287 32.6277 33.2787 33.2793C33.9303 33.9292 33.9303 34.9844 33.2787 35.6357L25.0313 43.8848L27.7361 46.5879C28.0611 46.9146 28.4878 47.0762 28.9143 47.0762C29.3393 47.0762 29.766 46.9143 30.0925 46.5879L46.5889 30.0916C47.2405 29.4399 47.2405 28.3865 46.5889 27.7351L20.3186 1.46313C18.3671 -0.486816 15.1959 -0.486816 13.2477 1.46313L1.46234 13.2466C-0.487457 15.1965 -0.487457 18.3677 1.46234 20.3176L3.8187 22.6738Z" fill="#F25C3A" fill-opacity="1.000000" fill-rule="nonzero"/>
		<path id="Vector" d="M82.756 79.447C81.9077 79.447 81.0596 79.7686 80.4147 80.4136C79.1232 81.7034 79.1232 83.8047 80.4147 85.0964C81.7062 86.3845 83.8077 86.3845 85.0958 85.0964C86.3873 83.8049 86.3873 81.7051 85.0958 80.4136C84.4507 79.7686 83.6042 79.447 82.756 79.447Z" fill="#F25C3A" fill-opacity="1.000000" fill-rule="nonzero"/>
		<path id="Vector" d="M98.8513 79.9949L71.4426 52.5896C70.791 51.938 69.7377 51.938 69.0862 52.5896L52.5899 69.0859C51.9384 69.7375 51.9384 70.7908 52.5899 71.4424L55.6696 74.5237L61.5605 68.6309C62.2122 67.9795 63.2654 67.9795 63.9169 68.6309C64.5686 69.2827 64.5686 70.3359 63.9169 70.9873L58.026 76.8801L60.3824 79.2363L68.6314 70.9873C69.2829 70.3359 70.3363 70.3359 70.9878 70.9873C71.6393 71.6389 71.6393 72.6938 70.9878 73.3438L62.7387 81.5928L79.9952 98.8508C80.7601 99.6157 81.7667 99.9973 82.7716 99.9973C83.7766 99.9973 84.7814 99.6157 85.5463 98.8508L98.8514 85.5457C100.383 84.0161 100.383 81.5247 98.8513 79.9949ZM87.4526 87.4524C86.1594 88.7473 84.4562 89.3938 82.7564 89.3938C81.0548 89.3938 79.3535 88.7473 78.0569 87.4524C75.4689 84.8628 75.4689 80.6482 78.0569 78.0569C80.6483 75.4705 84.8646 75.467 87.4526 78.0569C90.0423 80.6482 90.0423 84.8628 87.4526 87.4524Z" fill="#F25C3A" fill-opacity="1.000000" fill-rule="nonzero"/>
	</g>
</svg>
