<svg width="24.000000" height="24.000000" viewBox="0 0 24 24" fill="none" xmlns="http://www.w3.org/2000/svg" xmlns:xlink="http://www.w3.org/1999/xlink">
	<desc>
			Created with Pixso.
	</desc>
	<defs>
		<clipPath id="clip26_1349">
			<rect id="mail" width="24.000000" height="24.000000" fill="white" fill-opacity="0"/>
		</clipPath>
	</defs>
	<rect id="mail" width="24.000000" height="24.000000" fill="#FFFFFF" fill-opacity="0"/>
	<g clip-path="url(#clip26_1349)">
		<path id="Vector" d="M21.8569 21.4286C22.3965 21.4286 22.8638 21.2505 23.2612 20.8987L16.4614 14.0989C16.2983 14.2157 16.1401 14.3293 15.9912 14.4373C15.4819 14.8123 15.0693 15.1047 14.752 15.3145C14.4351 15.5245 14.0132 15.7386 13.4863 15.9573C12.9595 16.1763 12.4683 16.2854 12.0132 16.2854L11.9995 16.2854L11.9863 16.2854C11.5308 16.2854 11.04 16.1763 10.5132 15.9573C9.98633 15.7386 9.56445 15.5245 9.24756 15.3145C8.93018 15.1047 8.51758 14.8123 8.0083 14.4373C7.8667 14.3333 7.70947 14.2192 7.53906 14.097L0.738281 20.8987C1.13574 21.2505 1.60352 21.4286 2.14307 21.4286L21.8569 21.4286Z" fill="#FFFFFF" fill-opacity="1.000000" fill-rule="nonzero"/>
		<path id="Vector" d="M1.35303 9.81702C0.844238 9.47778 0.392578 9.08936 0 8.65173L0 18.9972L5.99316 13.004C4.79395 12.167 3.24951 11.1058 1.35303 9.81702Z" fill="#FFFFFF" fill-opacity="1.000000" fill-rule="nonzero"/>
		<path id="Vector" d="M22.6606 9.81702C20.8364 11.0518 19.2861 12.1146 18.0093 13.0065L24 18.9974L24 8.65173C23.6157 9.08057 23.1694 9.46875 22.6606 9.81702Z" fill="#FFFFFF" fill-opacity="1.000000" fill-rule="nonzero"/>
		<path id="Vector" d="M21.8579 2.57141L2.14355 2.57141C1.45605 2.57141 0.927246 2.80371 0.556641 3.2677C0.186035 3.73193 0.000976562 4.3125 0.000976562 5.00879C0.000976562 5.57117 0.246582 6.18054 0.737305 6.83704C1.22852 7.49329 1.75098 8.00879 2.3042 8.38367C2.60791 8.59814 3.52295 9.23438 5.05029 10.2922C5.87451 10.8635 6.59131 11.3613 7.20703 11.791C7.73242 12.1569 8.18506 12.4736 8.55908 12.7366C8.60205 12.7667 8.66943 12.8149 8.75879 12.879C8.85547 12.9484 8.97754 13.0363 9.12842 13.1451C9.41846 13.355 9.65967 13.5245 9.85156 13.6542C10.043 13.7838 10.2754 13.9286 10.5479 14.0894C10.8203 14.25 11.0771 14.3707 11.3184 14.451C11.5591 14.5312 11.7822 14.5715 11.9878 14.5715L12.001 14.5715L12.0142 14.5715C12.2197 14.5715 12.4429 14.5312 12.6841 14.451C12.9248 14.3707 13.1816 14.2502 13.4541 14.0894C13.7266 13.9286 13.9585 13.7834 14.1509 13.6542C14.3428 13.5245 14.5835 13.355 14.874 13.1451C15.0244 13.0363 15.1465 12.9482 15.2432 12.8793C15.3325 12.8149 15.3999 12.767 15.4434 12.7366C15.7344 12.5339 16.1885 12.2184 16.7983 11.7947C17.9087 11.0232 19.5439 9.8877 21.7109 8.38367C22.3628 7.92847 22.9072 7.37915 23.3447 6.73645C23.7817 6.09387 24.0005 5.41968 24.0005 4.71436C24.0005 4.125 23.7886 3.62073 23.3647 3.20068C22.9404 2.78125 22.438 2.57141 21.8579 2.57141Z" fill="#FFFFFF" fill-opacity="1.000000" fill-rule="nonzero"/>
	</g>
</svg>
