<svg width="100.000000" height="100.000000" viewBox="0 0 100 100" fill="none" xmlns="http://www.w3.org/2000/svg" xmlns:xlink="http://www.w3.org/1999/xlink">
	<desc>
			Created with Pixso.
	</desc>
	<defs>
		<clipPath id="clip342_1617">
			<rect id="eye-tracking" width="100.000000" height="100.000000" fill="white" fill-opacity="0"/>
		</clipPath>
	</defs>
	<rect id="eye-tracking" width="100.000000" height="100.000000" fill="#FFFFFF" fill-opacity="0"/>
	<g clip-path="url(#clip342_1617)">
		<path id="Vector" d="M85.6738 11.04L70.8439 11.04C69.0291 11.04 67.558 12.5112 67.558 14.3262C67.558 16.1406 69.0293 17.6118 70.8439 17.6118L82.3877 17.6118L82.3877 29.1558C82.3877 30.9707 83.859 32.4414 85.6736 32.4414C87.4883 32.4414 88.9596 30.9702 88.9596 29.1558L88.9596 14.3262C88.96 12.5112 87.4886 11.04 85.6738 11.04Z" fill="#F25C3A" fill-opacity="1.000000" fill-rule="nonzero"/>
		<path id="Vector" d="M85.674 67.5581C83.8591 67.5581 82.3881 69.0293 82.3881 70.8442L82.3881 82.3877L70.8442 82.3877C69.0294 82.3877 67.5583 83.8589 67.5583 85.6738C67.5583 87.4883 69.0297 88.9595 70.8442 88.9595L85.6742 88.9595C87.489 88.9595 88.9602 87.4883 88.9602 85.6738L88.9602 70.8438C88.9602 69.0293 87.4889 67.5581 85.674 67.5581Z" fill="#F25C3A" fill-opacity="1.000000" fill-rule="nonzero"/>
		<path id="Vector" d="M29.1555 11.04L14.3258 11.04C12.511 11.04 11.0399 12.5112 11.0399 14.3262L11.0399 29.1558C11.0399 30.9707 12.5112 32.4419 14.3258 32.4419C16.1405 32.4419 17.6118 30.9707 17.6118 29.1562L17.6118 17.6123L29.1555 17.6123C30.9705 17.6123 32.4415 16.1406 32.4415 14.3262C32.4415 12.5117 30.9705 11.04 29.1555 11.04Z" fill="#F25C3A" fill-opacity="1.000000" fill-rule="nonzero"/>
		<path id="Vector" d="M29.156 82.3882L17.6118 82.3882L17.6118 70.8447C17.6118 69.0298 16.1405 67.5586 14.3258 67.5586C12.5112 67.5586 11.0399 69.0298 11.0399 70.8447L11.0399 85.6743C11.0399 87.4893 12.5112 88.9604 14.3258 88.9604L29.1555 88.9604C30.9705 88.9604 32.4415 87.4893 32.4415 85.6743C32.4415 83.8599 30.9706 82.3882 29.156 82.3882Z" fill="#F25C3A" fill-opacity="1.000000" fill-rule="nonzero"/>
		<path id="Vector" d="M99.1949 47.8452C98.9531 47.5664 93.1702 40.9478 84.3092 34.2568C73.4313 26.043 63.0128 21.4673 53.2859 20.6196L53.2859 24.3467C64.9209 25.8286 74.1707 35.0767 75.653 46.7139L81.4346 46.7139C83.2494 46.7139 84.7206 48.1851 84.7206 49.9995C84.7206 51.8145 83.2493 53.2856 81.4346 53.2856L75.653 53.2856C74.1736 64.9004 64.9415 74.168 53.2859 75.6523L53.2859 79.3794C63.0128 78.5312 73.4313 73.9565 84.3092 65.7422C93.1702 59.0513 98.9531 52.4326 99.1949 52.1543C100.268 50.9185 100.268 49.0811 99.1949 47.8452Z" fill="#F25C3A" fill-opacity="1.000000" fill-rule="nonzero"/>
		<path id="Vector" d="M18.5653 46.7144L24.3469 46.7144C25.8263 35.0991 35.0583 25.8315 46.714 24.3472L46.714 20.6196C36.9871 21.4678 26.5686 26.0425 15.6907 34.2568C6.82971 40.9478 1.04675 47.5669 0.804932 47.8452C-0.268311 49.0811 -0.268311 50.9185 0.804932 52.1548C1.04675 52.4331 6.82971 59.0518 15.6907 65.7432C26.5686 73.957 36.9871 78.5322 46.714 79.3799L46.714 75.6533C35.079 74.1709 25.8292 64.9229 24.3469 53.2861L18.5653 53.2861C16.7505 53.2861 15.2794 51.8149 15.2794 50C15.2792 48.1855 16.7505 46.7144 18.5653 46.7144Z" fill="#F25C3A" fill-opacity="1.000000" fill-rule="nonzero"/>
		<path id="Vector" d="M53.2861 53.2856L53.2861 69.0073C61.2939 67.6274 67.6276 61.2935 69.0078 53.2856L53.2861 53.2856Z" fill="#F25C3A" fill-opacity="1.000000" fill-rule="nonzero"/>
		<path id="Vector" d="M30.9923 53.2856C32.3724 61.2935 38.7062 67.627 46.714 69.0073L46.714 53.2856L30.9923 53.2856Z" fill="#F25C3A" fill-opacity="1.000000" fill-rule="nonzero"/>
		<path id="Vector" d="M30.9923 46.7139L46.714 46.7139L46.714 30.9922C38.7062 32.3726 32.3724 38.7061 30.9923 46.7139Z" fill="#F25C3A" fill-opacity="1.000000" fill-rule="nonzero"/>
		<path id="Vector" d="M53.2861 30.9922L53.2861 46.7139L69.0078 46.7139C67.6276 38.7061 61.2938 32.3721 53.2861 30.9922Z" fill="#F25C3A" fill-opacity="1.000000" fill-rule="nonzero"/>
	</g>
</svg>
