<svg width="24.000000" height="23.900024" viewBox="0 0 24 23.9" fill="none" xmlns="http://www.w3.org/2000/svg" xmlns:xlink="http://www.w3.org/1999/xlink">
	<defs/>
	<path id="Vector" d="M12 0C5.3728 0 0 5.37268 0 12.0001C0 17.9441 4.32617 22.8667 9.99878 23.8199L9.99878 14.5037L7.104 14.5037L7.104 11.151L9.99878 11.151L9.99878 8.67896C9.99878 5.81067 11.7505 4.24768 14.3096 4.24768C15.5354 4.24768 16.5886 4.33899 16.8943 4.37927L16.8943 7.37732L15.1194 7.37817C13.728 7.37817 13.4597 8.03931 13.4597 9.00964L13.4597 11.1493L16.7798 11.1493L16.3469 14.502L13.4597 14.502L13.4597 23.9C19.397 23.1775 24 18.1294 24 11.9966C24 5.37268 18.6272 0 12 0Z" fill="#927398" fill-opacity="1.000000" fill-rule="nonzero"/>
</svg>
