<svg width="100.000000" height="100.000000" viewBox="0 0 100 100" fill="none" xmlns="http://www.w3.org/2000/svg" xmlns:xlink="http://www.w3.org/1999/xlink">
	<desc>
			Created with Pixso.
	</desc>
	<defs>
		<clipPath id="clip342_1542">
			<rect id="high-heel" width="100.000000" height="100.000000" fill="white" fill-opacity="0"/>
		</clipPath>
	</defs>
	<rect id="high-heel" width="100.000000" height="100.000000" fill="#FFFFFF" fill-opacity="0"/>
	<g clip-path="url(#clip342_1542)">
		<path id="Vector" d="M73.922 70.7856C73.922 70.7856 73.8605 70.8506 73.7488 70.959C67.3289 68.3894 60.1641 70.2756 54.5603 65.2483C48.8965 60.1689 44.6204 52.1995 39.9329 46.1699C34.776 39.5312 29.4586 33.019 24.054 26.583C20.2085 22.0073 16.682 16.7112 11.7484 13.2429C11.0507 11.873 10.4192 11.3049 9.29871 12.1128C8.78052 12.2292 8.38062 12.6438 8.21387 13.1489C7.57751 13.8696 6.81982 14.8831 5.88074 16.2529C-0.505249 25.5874 -1.48804 33.6926 1.95105 43.0288C5.39014 52.363 4.65332 85.2788 4.65332 85.2788C4.65332 85.2788 6.12842 87.2427 7.60181 86.2598C9.0769 85.2788 5.63782 54.0811 8.34021 50.3958C8.34021 50.3958 19.8846 44.0083 29.7113 65.8716C39.5378 87.7334 44.2042 88.2239 51.0824 88.2239C57.962 88.2239 78.1042 88.7161 92.8417 86.0122C107.578 83.3115 98.7338 77.9084 73.922 70.7856ZM51.5713 74.4692C42.7275 64.1521 21.3564 28.5342 15.9534 21.1655C15.8546 21.0327 15.7639 20.8982 15.6716 20.7654C18.5699 24.0166 21.1509 27.6907 23.7706 30.8091C30.2893 38.5696 36.5715 46.5293 42.726 54.5796C46.3739 59.3513 49.5183 64.6782 54.0162 68.7117C58.9628 73.1497 65.4329 71.427 71.2327 73.1692C66.8383 76.6487 57.9799 81.948 51.5713 74.4692Z" fill="#F25C3A" fill-opacity="1.000000" fill-rule="nonzero"/>
	</g>
</svg>
