<svg width="100.000000" height="100.000000" viewBox="0 0 100 100" fill="none" xmlns="http://www.w3.org/2000/svg" xmlns:xlink="http://www.w3.org/1999/xlink">
	<desc>
			Created with Pixso.
	</desc>
	<defs>
		<clipPath id="clip342_1531">
			<rect id="laughing" width="100.000000" height="100.000000" fill="white" fill-opacity="0"/>
		</clipPath>
	</defs>
	<rect id="laughing" width="100.000000" height="100.000000" fill="#FFFFFF" fill-opacity="0"/>
	<g clip-path="url(#clip342_1531)">
		<path id="Vector" d="M50 0C22.4296 0 0 22.4294 0 50C0 77.5706 22.4296 100 50 100C77.5704 100 100 77.5706 100 50C100 22.4294 77.5704 0 50 0ZM59.9068 36.8909L73.5432 25.5273C74.5114 24.7227 75.9432 24.8545 76.7455 25.8181C77.5477 26.7817 77.4182 28.2158 76.4545 29.0181L64.9136 38.6365L76.4545 48.2546C77.4182 49.0591 77.5477 50.491 76.7455 51.4546C76.2955 51.9932 75.65 52.2727 74.9977 52.2727C74.4841 52.2727 73.9705 52.1001 73.5432 51.7454L59.9068 40.3818C59.3909 39.95 59.0909 39.3113 59.0909 38.6365C59.0909 37.9614 59.3909 37.3228 59.9068 36.8909ZM25.8159 29.0181C24.8523 28.2136 24.7227 26.7817 25.525 25.8181C26.3295 24.8545 27.7568 24.7227 28.7273 25.5273L42.3636 36.8909C42.8818 37.3228 43.1818 37.9614 43.1818 38.6365C43.1818 39.3113 42.8818 39.95 42.3659 40.3818L28.7296 51.7454C28.3022 52.1001 27.7886 52.2727 27.275 52.2727C26.6227 52.2727 25.9773 51.9932 25.525 51.4546C24.7205 50.491 24.8523 49.0569 25.8159 48.2546L37.3568 38.6365L25.8159 29.0181ZM50 90.9092C34.9614 90.9092 22.7273 78.675 22.7273 63.6365C22.7273 62.3818 23.7432 61.3635 25 61.3635L75 61.3635C76.2568 61.3635 77.2727 62.3818 77.2727 63.6365C77.2727 78.675 65.0386 90.9092 50 90.9092Z" fill="#F25C3A" fill-opacity="1.000000" fill-rule="nonzero"/>
	</g>
</svg>
