<svg width="286.000000" height="70.000000" viewBox="0 0 286 70" fill="none" xmlns="http://www.w3.org/2000/svg" xmlns:xlink="http://www.w3.org/1999/xlink">
	<desc>
			Created with Pixso.
	</desc>
	<defs/>
	<path id="Vector" d="M32.3784 64.7468C32.5095 65.4559 32.5881 65.9025 32.1687 66.2177C31.2511 64.7205 30.8579 62.8293 30.6219 60.3341C30.3597 60.5179 30.0975 60.7018 29.8354 60.8856C29.8092 60.728 29.8092 60.5704 29.783 60.4128C30.15 58.7844 29.7043 56.972 29.0751 55.5273C28.8391 56.0265 28.7343 56.5255 28.3672 56.9194C27.8691 55.5536 27.371 54.2141 26.8729 52.8483C26.4272 51.1672 26.5845 49.0134 26.7156 47.6738C27.2137 42.6832 24.8804 37.9028 22.9666 35.3812C22.9141 35.3812 22.8879 35.3812 22.8354 35.3812C22.7831 35.6702 22.7306 35.9591 22.6782 36.248C22.5995 36.248 22.5209 36.2743 22.4423 36.2743C21.3411 31.1787 15.9667 32.3081 15.1277 24.3232C15.285 24.2708 15.4423 24.2181 15.5996 24.1656C16.7269 24.402 16.7793 24.0343 17.4609 23.509C17.4872 24.1132 17.5134 24.5597 17.828 24.796C19.27 25.6628 20.7382 26.5295 22.1801 27.3964C20.9479 25.4001 19.6895 23.3777 18.4573 21.3815C18.064 21.5391 17.6969 21.6967 17.3037 21.8542C17.3037 21.8018 17.3037 21.7754 17.3037 21.7229C17.6445 20.5146 17.1464 19.7004 17.4609 18.3346C17.7756 16.9688 18.4573 15.2351 19.0602 13.843C19.3224 13.738 19.6108 13.6329 19.8729 13.5278C23.386 15.3402 26.637 20.3571 30.517 21.4077C33.7942 22.3008 37.7791 20.9612 40.6106 22.3533C42.7079 23.3777 43.7566 26.9761 45.5131 28.0267C47.0599 28.3682 48.6329 28.6833 50.1797 29.0249C52.382 29.7078 54.1123 31.2574 56.131 32.0455C56.1572 32.2031 56.1572 32.3607 56.1833 32.5183C54.6891 34.1205 52.8014 35.4601 49.7603 35.8015C51.4644 37.9553 53.5879 41.5538 56.1047 42.657C56.0785 42.7883 56.0524 42.8933 56.0261 43.0247C55.5542 43.1035 55.0823 43.2086 54.6104 43.2874C54.6891 43.2874 54.7677 43.2611 54.8463 43.2611C56.4193 44.627 58.0186 46.019 59.5916 47.3849C59.5916 47.4374 59.5916 47.4636 59.5916 47.5162C59.1984 47.5162 58.7788 47.5162 58.3856 47.5162C58.7264 48.6456 59.6964 49.4336 60.6665 49.8276C60.5879 49.959 60.5354 50.0903 60.4568 50.2217C60.1422 50.3267 59.8275 50.4318 59.5392 50.5631C60.9548 51.0884 63.4979 52.1915 64.8612 53.321C68.1383 47.9365 70.0259 41.6063 69.9998 34.8297C69.8949 15.4716 54.1384 -0.130493 34.8167 0.000854492C15.4423 0.0270996 -0.10437 15.813 0.000488281 35.1711C0.105347 54.2404 15.4161 69.6586 34.3447 70C33.8728 68.2139 33.6631 65.2721 32.3784 64.7468Z" fill="#F25C3A" fill-opacity="1.000000" fill-rule="evenodd"/>
	<path id="Vector" d="M130.126 22C122.861 22 116.979 27.8813 116.979 35.1465C116.979 42.4116 122.861 48.293 130.126 48.293C137.391 48.293 143.272 42.4116 143.272 35.1465C143.272 27.8813 137.391 22 130.126 22ZM130.126 43.4496C125.513 43.4496 121.823 39.7208 121.823 35.1465C121.823 30.5721 125.551 26.8434 130.126 26.8434C134.739 26.8434 138.429 30.5721 138.429 35.1465C138.429 39.7208 134.7 43.4496 130.126 43.4496ZM111.751 22.2306L105.678 39.4902L99.8351 22L97.1058 22L90.917 39.4902L85.2662 22.2306L80 22.2306L88.995 48.1776L92.493 48.1776L98.3743 31.4946L103.987 48.1776L107.485 48.1776L117.018 22.2306L111.751 22.2306ZM152.075 22.2306L147.116 22.2306L147.116 47.6011L159.917 47.6011L159.917 43.3342L152.075 43.3342L152.075 22.2306ZM179.713 26.4974L180.444 22.2306L163.338 22.2306L163.338 47.6011L168.297 47.6011L168.297 36.415L177.753 36.415L178.483 32.1482L168.297 32.1482L168.297 26.4974L179.713 26.4974Z" fill="#F25C3A" fill-opacity="1.000000" fill-rule="evenodd"/>
	<path id="Vector" d="M243.485 24.9983C240.679 22.9226 237.604 22.5382 234.068 22.5382L210.965 22.5382L211.695 26.9203L232.415 26.9203L232.415 26.8051L233.952 26.8051C235.644 26.8051 238.142 26.9587 240.179 28.4963C242.178 30.0339 243.293 32.6095 243.293 35.2618C243.293 37.9526 242.14 40.5665 240.141 41.9888C237.95 43.6033 235.182 43.6802 233.952 43.6802L232.415 43.6802L232.415 43.6033L214.463 43.6033L215.193 47.947L234.029 47.947C237.566 47.947 240.333 47.6011 243.332 45.5253C246.676 43.1804 248.444 39.5287 248.444 35.3003C248.367 31.0334 246.561 27.3431 243.485 24.9983ZM232.299 32.4941L212.618 32.4941L213.348 36.8763L232.338 36.8763L232.338 32.4941L232.299 32.4941ZM252.672 47.9086L257.631 47.9086L257.631 22.5382L252.672 22.5382L252.672 47.9086ZM275.314 22L271.585 22L260.591 47.9086L265.973 47.9086L268.202 42.5654L278.427 42.5654L280.657 47.9086L286 47.9086L275.314 22ZM269.778 38.5676L273.43 29.4189L277.005 38.5676L269.778 38.5676ZM202.7 22.0769L195.512 38.683L188.631 22.0769L185.21 22.0769L180.482 47.9086L185.518 47.9086L188.093 32.2635L194.743 48.2545L196.127 48.2545L203.085 32.2635L205.353 47.9086L210.389 47.9086L206.122 22.0769L202.7 22.0769Z" fill="#FFFFFF" fill-opacity="1.000000" fill-rule="evenodd"/>
</svg>
