<svg width="100.000000" height="100.000000" viewBox="0 0 100 100" fill="none" xmlns="http://www.w3.org/2000/svg" xmlns:xlink="http://www.w3.org/1999/xlink">
	<desc>
			Created with Pixso.
	</desc>
	<defs>
		<clipPath id="clip62_526">
			<rect id="eye-tracking" width="100.000000" height="100.000000" fill="white" fill-opacity="0"/>
		</clipPath>
	</defs>
	<rect id="eye-tracking" width="100.000000" height="100.000000" fill="#FFFFFF" fill-opacity="0"/>
	<g clip-path="url(#clip62_526)">
		<path id="Vector" d="M85.6741 11.04L70.844 11.04C69.0293 11.04 67.5581 12.5112 67.5581 14.3262C67.5581 16.1406 69.0293 17.6118 70.844 17.6118L82.3879 17.6118L82.3879 29.1558C82.3879 30.9707 83.8591 32.4414 85.6738 32.4414C87.4885 32.4414 88.9597 30.9702 88.9597 29.1558L88.9597 14.3262C88.9602 12.5112 87.4888 11.04 85.6741 11.04Z" fill="#F25C3A" fill-opacity="1.000000" fill-rule="nonzero"/>
		<path id="Vector" d="M85.6741 67.5581C83.8591 67.5581 82.3879 69.0293 82.3879 70.8442L82.3879 82.3877L70.8442 82.3877C69.0295 82.3877 67.5583 83.8589 67.5583 85.6738C67.5583 87.4883 69.0295 88.9595 70.8442 88.9595L85.6743 88.9595C87.489 88.9595 88.9602 87.4883 88.9602 85.6738L88.9602 70.8438C88.9602 69.0293 87.4888 67.5581 85.6741 67.5581Z" fill="#F25C3A" fill-opacity="1.000000" fill-rule="nonzero"/>
		<path id="Vector" d="M29.1558 11.04L14.3259 11.04C12.5112 11.04 11.04 12.5112 11.04 14.3262L11.04 29.1558C11.04 30.9707 12.5112 32.4419 14.3259 32.4419C16.1406 32.4419 17.6118 30.9707 17.6118 29.1562L17.6118 17.6123L29.1558 17.6123C30.9705 17.6123 32.4417 16.1406 32.4417 14.3262C32.4417 12.5117 30.9705 11.04 29.1558 11.04Z" fill="#F25C3A" fill-opacity="1.000000" fill-rule="nonzero"/>
		<path id="Vector" d="M29.156 82.3882L17.6118 82.3882L17.6118 70.8447C17.6118 69.0298 16.1406 67.5586 14.3259 67.5586C12.5112 67.5586 11.04 69.0298 11.04 70.8447L11.04 85.6743C11.04 87.4893 12.5112 88.9604 14.3259 88.9604L29.1558 88.9604C30.9705 88.9604 32.4417 87.4893 32.4417 85.6743C32.4417 83.8599 30.9707 82.3882 29.156 82.3882Z" fill="#F25C3A" fill-opacity="1.000000" fill-rule="nonzero"/>
		<path id="Vector" d="M99.1951 47.8457C98.9531 47.5669 93.1702 40.9482 84.3091 34.2573C73.4312 26.0435 63.0129 21.4678 53.2859 20.6201L53.2859 24.3472C64.9209 25.8291 74.1707 35.0771 75.6528 46.7144L81.4346 46.7144C83.2495 46.7144 84.7205 48.1855 84.7205 50C84.7205 51.8149 83.2493 53.2861 81.4346 53.2861L75.6528 53.2861C74.1736 64.9009 64.9417 74.1685 53.2859 75.6528L53.2859 79.3799C63.0129 78.5317 73.4312 73.957 84.3091 65.7427C93.1702 59.0518 98.9531 52.4331 99.1951 52.1548C100.268 50.9189 100.268 49.0815 99.1951 47.8457Z" fill="#F25C3A" fill-opacity="1.000000" fill-rule="nonzero"/>
		<path id="Vector" d="M18.5654 46.7144L24.3469 46.7144C25.8262 35.0991 35.0583 25.8315 46.7141 24.3472L46.7141 20.6196C36.9871 21.4678 26.5686 26.0425 15.6907 34.2568C6.82983 40.9478 1.04663 47.5669 0.804932 47.8452C-0.268311 49.0811 -0.268311 50.9185 0.804932 52.1548C1.04663 52.4331 6.82983 59.0518 15.6907 65.7432C26.5686 73.957 36.9871 78.5322 46.7141 79.3799L46.7141 75.6533C35.0791 74.1709 25.8291 64.9229 24.3469 53.2861L18.5654 53.2861C16.7505 53.2861 15.2793 51.8149 15.2793 50C15.2793 48.1855 16.7505 46.7144 18.5654 46.7144Z" fill="#F25C3A" fill-opacity="1.000000" fill-rule="nonzero"/>
		<path id="Vector" d="M53.2861 53.2861L53.2861 69.0078C61.2939 67.6279 67.6277 61.2939 69.0078 53.2861L53.2861 53.2861Z" fill="#F25C3A" fill-opacity="1.000000" fill-rule="nonzero"/>
		<path id="Vector" d="M30.9922 53.2861C32.3723 61.2939 38.7061 67.6274 46.7139 69.0078L46.7139 53.2861L30.9922 53.2861Z" fill="#F25C3A" fill-opacity="1.000000" fill-rule="nonzero"/>
		<path id="Vector" d="M30.9922 46.7139L46.7139 46.7139L46.7139 30.9922C38.7061 32.3726 32.3723 38.7061 30.9922 46.7139Z" fill="#F25C3A" fill-opacity="1.000000" fill-rule="nonzero"/>
		<path id="Vector" d="M53.2861 30.9922L53.2861 46.7139L69.0078 46.7139C67.6277 38.7061 61.2937 32.3721 53.2861 30.9922Z" fill="#F25C3A" fill-opacity="1.000000" fill-rule="nonzero"/>
	</g>
</svg>
