<svg width="100.000000" height="100.000000" viewBox="0 0 100 100" fill="none" xmlns="http://www.w3.org/2000/svg" xmlns:xlink="http://www.w3.org/1999/xlink">
	<desc>
			Created with Pixso.
	</desc>
	<defs>
		<clipPath id="clip342_1534">
			<rect id="paw-black-shape" width="100.000000" height="100.000000" fill="white" fill-opacity="0"/>
		</clipPath>
	</defs>
	<rect id="paw-black-shape" width="100.000000" height="100.000000" fill="#FFFFFF" fill-opacity="0"/>
	<g clip-path="url(#clip342_1534)">
		<path id="Vector" d="M83.0304 81.3132C82.8046 95.1667 75.4221 100.179 67.5863 99.7146C59.7504 99.2522 54.3 95.6189 48.7347 95.6189L48.5067 95.7461C42.9414 95.7461 37.4915 99.5071 29.6554 99.9695C21.8192 100.432 14.4373 95.6721 14.2114 81.8188C14.6656 69.0999 24.3555 68.1646 32.6089 53.1394C39.8762 39.9087 48.5072 40.9795 48.5072 40.9795L48.7347 40.9795C48.7347 40.9795 57.4403 39.9661 64.6333 53.1394C72.8472 68.1851 82.576 68.5938 83.0304 81.3132ZM34.5133 35.2715C41.454 34.7454 46.4827 26.429 45.7446 16.696C45.0067 6.96338 38.7816 -0.5 31.8408 0.026123C24.9001 0.55249 19.8716 8.86914 20.6095 18.6018C21.3475 28.3345 27.5724 35.7979 34.5133 35.2715ZM60.8199 35.4407C67.6027 37.2896 75.2031 31.0786 77.7957 21.5681C80.3878 12.0574 76.9908 2.84863 70.2084 0.999756C63.4257 -0.849121 55.8251 5.36182 53.2329 14.8723C50.6405 24.3828 54.0372 33.5918 60.8199 35.4407ZM92.244 27.8257C86.3375 26.2156 79.7188 31.624 77.4613 39.906C75.2039 48.1882 78.162 56.207 84.0684 57.8171C89.9751 59.4272 96.5936 54.0188 98.8513 45.7366C101.109 37.4551 98.1509 29.4358 92.244 27.8257ZM22.5388 39.9053C20.2811 31.6238 13.6628 26.2151 7.7561 27.8252C1.84949 29.4351 -1.10889 37.4543 1.1488 45.7363C3.40649 54.0178 10.025 59.4265 15.9318 57.8164C21.8383 56.2065 24.7963 48.1875 22.5388 39.9053Z" fill="#F25C3A" fill-opacity="1.000000" fill-rule="nonzero"/>
	</g>
</svg>
