<svg width="94.000000" height="94.000000" viewBox="0 0 94 94" fill="none" xmlns="http://www.w3.org/2000/svg" xmlns:xlink="http://www.w3.org/1999/xlink">
	<desc>
			Created with Pixso.
	</desc>
	<defs>
		<clipPath id="clip63_183">
			<rect id="youtube (2)" width="94.000000" height="94.000000" fill="white" fill-opacity="0"/>
		</clipPath>
	</defs>
	<rect id="youtube (2)" width="94.000000" height="94.000000" fill="#FFFFFF" fill-opacity="0"/>
	<g clip-path="url(#clip63_183)">
		<path id="Vector" d="M92.0632 24.4351C90.9797 20.4082 87.8047 17.2344 83.7786 16.1499C76.4229 14.1367 46.999 14.1367 46.999 14.1367C46.999 14.1367 17.5762 14.1367 10.2202 16.0732C6.27148 17.1567 3.01929 20.4092 1.93555 24.4351C0 31.7905 0 47.0444 0 47.0444C0 47.0444 0 62.375 1.93555 69.6533C3.02002 73.6797 6.19409 76.8545 10.2209 77.939C17.6536 79.9521 46.9998 79.9521 46.9998 79.9521C46.9998 79.9521 76.4229 79.9521 83.7786 78.0156C87.8054 76.9321 90.9797 73.7573 92.064 69.731C93.9995 62.375 93.9995 47.1216 93.9995 47.1216C93.9995 47.1216 94.0771 31.7905 92.0632 24.4351Z" fill="#FFFFFF" fill-opacity="1.000000" fill-rule="nonzero"/>
		<path id="Vector" d="M37.6309 61.1367L62.0984 47.0444L37.6309 32.9521L37.6309 61.1367Z" fill="#F25C3A" fill-opacity="1.000000" fill-rule="nonzero"/>
	</g>
</svg>
