<svg width="44.000000" height="44.000000" viewBox="0 0 44 44" fill="none" xmlns="http://www.w3.org/2000/svg" xmlns:xlink="http://www.w3.org/1999/xlink">
	<desc>
			Created with Pixso.
	</desc>
	<defs>
		<clipPath id="clip342_1657">
			<rect id="repairing-service" width="44.000000" height="44.000000" fill="white" fill-opacity="0"/>
		</clipPath>
	</defs>
	<rect id="repairing-service" width="44.000000" height="44.000000" fill="#FFFFFF" fill-opacity="0"/>
	<g clip-path="url(#clip342_1657)">
		<path id="Vector" d="M43.8616 19.5576C43.7921 18.939 43.0707 18.4741 42.447 18.4741C40.4311 18.4741 38.6421 17.2905 37.8918 15.4595C37.1259 13.584 37.6201 11.3975 39.122 10.0195C39.595 9.5874 39.6527 8.86279 39.2561 8.36035C38.224 7.0498 37.0515 5.86621 35.7709 4.84033C35.2698 4.43848 34.5336 4.49463 34.0988 4.97559C32.7876 6.42773 30.4321 6.96777 28.6118 6.20801C26.7183 5.41162 25.5231 3.49219 25.6405 1.43164C25.6791 0.78418 25.2057 0.22168 24.5605 0.146484C22.917 -0.0439453 21.259 -0.0493164 19.6108 0.133789C18.9737 0.204102 18.5007 0.753418 18.5218 1.39258C18.5931 3.43262 17.3845 5.31836 15.5092 6.08643C13.7108 6.82129 11.3717 6.28564 10.0631 4.8457C9.63058 4.37158 8.90729 4.31348 8.40286 4.70703C7.08456 5.74121 5.88559 6.92578 4.84396 8.22559C4.43811 8.73096 4.49805 9.46289 4.97507 9.89697C6.50668 11.2842 7.00046 13.4893 6.20526 15.3867C5.44604 17.1953 3.56812 18.3604 1.41849 18.3604C0.720886 18.3379 0.224426 18.8066 0.147369 19.4409C-0.0459595 21.0933 -0.0480347 22.7773 0.138062 24.4434C0.20752 25.0645 0.950195 25.5259 1.58078 25.5259C3.49695 25.4771 5.33548 26.6626 6.10785 28.54C6.8764 30.415 6.38165 32.6006 4.87726 33.9805C4.40671 34.4131 4.34656 35.1357 4.7439 35.6377C5.7655 36.9399 6.93918 38.1245 8.2236 39.1592C8.72787 39.5649 9.46121 39.5083 9.89832 39.0264C11.2147 37.5708 13.5698 37.0317 15.3827 37.793C17.2817 38.5874 18.4763 40.5068 18.3597 42.5674C18.3214 43.2148 18.796 43.7793 19.439 43.853C20.28 43.9512 21.1255 44 21.9735 44C22.7784 44 23.5836 43.9561 24.3886 43.8662C25.0265 43.7959 25.4987 43.2461 25.4773 42.6064C25.4036 40.5674 26.615 38.6816 28.4879 37.915C30.2983 37.1758 32.627 37.7168 33.9363 39.1543C34.3712 39.6274 35.09 39.6851 35.5966 39.293C36.9126 38.2612 38.1093 37.0771 39.1555 35.7744C39.5617 35.27 39.5041 34.5366 39.0244 34.1021C37.4931 32.7158 36.9967 30.5098 37.7919 28.6143C38.5393 26.8301 40.3474 25.6318 42.2921 25.6318L42.5642 25.6392C43.1956 25.6904 43.7758 25.2041 43.8521 24.5601C44.0463 22.9062 44.0484 21.2241 43.8616 19.5576ZM22 34.6831C14.9951 34.6831 9.3168 29.0049 9.3168 22.0005C9.3168 14.9956 14.9952 9.31738 22 9.31738C29.0048 9.31738 34.6832 14.9956 34.6832 22.0005C34.6832 24.3779 34.0277 26.6016 32.8892 28.5034L27.3356 22.9497C27.7376 22.0015 27.95 20.9736 27.9498 19.9131C27.9498 17.8364 27.1409 15.8838 25.6721 14.4155C24.2037 12.9468 22.2512 12.1382 20.1746 12.1382C19.4816 12.1382 18.7918 12.2305 18.1245 12.4121C17.8322 12.4917 17.5932 12.7324 17.5154 13.0254C17.4359 13.3252 17.5255 13.6318 17.7595 13.8662C17.7595 13.8662 20.5013 16.6289 21.4187 17.5464C21.5148 17.6426 21.5146 17.8716 21.5011 17.9541L21.4925 18.0146C21.4 19.0229 21.2217 20.2339 21.0746 20.6987C21.0549 20.7183 21.0362 20.7349 21.0161 20.7554C20.9949 20.7764 20.9755 20.7969 20.9551 20.8179C20.4838 20.9688 19.2546 21.1494 18.2301 21.2412L18.2303 21.2354L18.1842 21.2471C18.1761 21.248 18.1608 21.249 18.1407 21.249C18.0299 21.249 17.867 21.2183 17.719 21.0703C16.7641 20.1157 14.1299 17.5 14.1299 17.5C13.8935 17.2646 13.6511 17.2148 13.4895 17.2148C13.113 17.2148 12.7758 17.4873 12.6696 17.8774C11.9444 20.561 12.7132 23.4478 14.6763 25.4111C16.1451 26.8794 18.0978 27.688 20.1748 27.688C21.2354 27.688 22.2632 27.4761 23.211 27.0742L28.8249 32.688C26.854 33.9492 24.5135 34.6831 22 34.6831Z" fill="#F25C3A" fill-opacity="1.000000" fill-rule="nonzero"/>
	</g>
</svg>
