<svg width="23.965088" height="24.000000" viewBox="0 0 23.9651 24" fill="none" xmlns="http://www.w3.org/2000/svg" xmlns:xlink="http://www.w3.org/1999/xlink">
	<desc>
			Created with Pixso.
	</desc>
	<defs/>
	<path id="Vector" d="M18.9502 14.8671C18.4587 14.3555 17.8662 14.082 17.238 14.082C16.615 14.082 16.0173 14.3505 15.5056 14.8621L13.905 16.4576C13.7732 16.3867 13.6416 16.3209 13.5149 16.255C13.3325 16.1638 13.1604 16.0778 13.0134 15.9866C11.5142 15.0343 10.1516 13.7932 8.84473 12.1875C8.21143 11.3872 7.78613 10.7135 7.47705 10.0297C7.89233 9.64978 8.27734 9.25464 8.65234 8.87476C8.79395 8.73291 8.93579 8.58606 9.07764 8.44421C10.1414 7.38049 10.1414 6.00269 9.07764 4.93896L7.69482 3.55615C7.53784 3.39917 7.37573 3.23706 7.22388 3.07495C6.91992 2.76086 6.60083 2.43677 6.27148 2.13281C5.78027 1.64648 5.19263 1.38818 4.57471 1.38818C3.95654 1.38818 3.35889 1.64648 2.85229 2.13281C2.84741 2.13782 2.84741 2.13782 2.84229 2.14294L1.12012 3.88037C0.47168 4.52869 0.101807 5.31885 0.020752 6.23572C-0.10083 7.71484 0.334961 9.09265 0.669189 9.99426C1.48975 12.2078 2.71558 14.2593 4.54419 16.4576C6.76294 19.1068 9.43237 21.1989 12.4817 22.6729C13.6467 23.225 15.2017 23.8784 16.9392 23.9899C17.0457 23.9949 17.157 24 17.2583 24C18.4285 24 19.4111 23.5796 20.1809 22.7438C20.186 22.7336 20.1963 22.7285 20.2012 22.7184C20.4646 22.3993 20.7686 22.1106 21.0876 21.8016C21.3054 21.5939 21.5283 21.3761 21.7461 21.1482C22.2476 20.6265 22.511 20.0186 22.511 19.3955C22.511 18.7675 22.2427 18.1647 21.731 17.6581L18.9502 14.8671ZM20.7634 20.2009C20.5659 20.4137 20.3633 20.6062 20.1455 20.819C19.8164 21.1329 19.4819 21.4623 19.168 21.832C18.6562 22.379 18.0535 22.6373 17.2634 22.6373C17.1873 22.6373 17.1062 22.6373 17.0303 22.6323C15.5259 22.5361 14.1279 21.9485 13.0793 21.447C10.2124 20.0591 7.69482 18.0887 5.60278 15.5914C3.87549 13.5096 2.7207 11.5847 1.95581 9.51807C1.48462 8.25684 1.3125 7.27417 1.38843 6.34717C1.43921 5.75452 1.66699 5.26318 2.0874 4.84277L3.8147 3.11548C4.06299 2.88245 4.32642 2.75586 4.58472 2.75586C4.90381 2.75586 5.16211 2.94836 5.32422 3.11035C5.32935 3.11548 5.33447 3.12048 5.33936 3.12561C5.64844 3.41431 5.94214 3.71313 6.25122 4.03235C6.4082 4.19434 6.57031 4.35645 6.73242 4.52368L8.11523 5.90649C8.65234 6.44336 8.65234 6.93982 8.11523 7.47681C7.96851 7.62366 7.82666 7.77051 7.67969 7.91235C7.25415 8.34802 6.84888 8.75317 6.4082 9.14832C6.39819 9.15845 6.38794 9.16357 6.38306 9.17371C5.94727 9.60925 6.02832 10.0348 6.11963 10.3235C6.12451 10.3386 6.12964 10.3539 6.13477 10.369C6.49438 11.2404 7.00098 12.0609 7.77075 13.0386L7.77588 13.0436C9.17407 14.7659 10.6479 16.1082 12.2739 17.1364C12.4817 17.2681 12.6943 17.3745 12.897 17.4758C13.0793 17.567 13.2515 17.6531 13.3984 17.7443C13.4187 17.7544 13.439 17.7695 13.4592 17.7797C13.6316 17.8658 13.7935 17.9064 13.9607 17.9064C14.3811 17.9064 14.6445 17.6429 14.7307 17.5569L16.4631 15.8245C16.6353 15.6522 16.9087 15.4446 17.2278 15.4446C17.542 15.4446 17.8003 15.6421 17.9573 15.8143C17.9624 15.8195 17.9624 15.8195 17.9675 15.8245L20.7585 18.6155C21.2803 19.1322 21.2803 19.6641 20.7634 20.2009Z" fill="#FFFFFF" fill-opacity="1.000000" fill-rule="nonzero"/>
	<path id="Vector" d="M12.9526 5.70898C14.2795 5.93188 15.4851 6.55994 16.4475 7.52234C17.4102 8.48474 18.0332 9.69031 18.261 11.0175C18.3167 11.3518 18.6055 11.5848 18.9348 11.5848C18.9753 11.5848 19.0107 11.5797 19.0513 11.5747C19.426 11.5139 19.6743 11.1593 19.6135 10.7844C19.3398 9.17871 18.5801 7.71484 17.4202 6.55493C16.2603 5.3949 14.7964 4.63513 13.1907 4.36157C12.8157 4.30078 12.4663 4.54895 12.4004 4.9187C12.3345 5.28857 12.5776 5.64819 12.9526 5.70898Z" fill="#FFFFFF" fill-opacity="1.000000" fill-rule="nonzero"/>
	<path id="Vector" d="M23.9546 10.5869C23.5037 7.94275 22.2576 5.53674 20.3428 3.62207C18.4282 1.70728 16.0222 0.461304 13.3779 0.010376C13.0083 -0.0554199 12.6587 0.197876 12.5928 0.567627C12.5322 0.942505 12.7803 1.29199 13.155 1.35779C15.5156 1.75793 17.6685 2.87744 19.3804 4.58447C21.0925 6.29651 22.207 8.44934 22.6072 10.8098C22.6628 11.144 22.9517 11.3771 23.2808 11.3771C23.3213 11.3771 23.3567 11.3721 23.3972 11.3669C23.7671 11.3113 24.0203 10.9567 23.9546 10.5869Z" fill="#FFFFFF" fill-opacity="1.000000" fill-rule="nonzero"/>
</svg>
