<svg width="24.000000" height="24.000000" viewBox="0 0 24 24" fill="none" xmlns="http://www.w3.org/2000/svg" xmlns:xlink="http://www.w3.org/1999/xlink">
	<defs/>
	<path id="Vector" d="M12 0C5.37354 0 0 5.37354 0 12C0 18.6265 5.37354 24 12 24C18.6265 24 24 18.6265 24 12C24 5.37354 18.6265 0 12 0ZM17.479 9.35632C17.4844 9.47437 17.4868 9.59302 17.4868 9.71228C17.4868 13.3518 14.7166 17.5488 9.65015 17.5491L9.65039 17.5491L9.65015 17.5491C8.09473 17.5491 6.64722 17.093 5.42822 16.3118C5.6438 16.3372 5.86328 16.3499 6.08545 16.3499C7.37598 16.3499 8.56348 15.9097 9.50635 15.1709C8.30054 15.1484 7.28394 14.3522 6.93311 13.2578C7.10107 13.29 7.27368 13.3076 7.45068 13.3076C7.70215 13.3076 7.9458 13.2737 8.17725 13.2104C6.91675 12.9583 5.96729 11.8444 5.96729 10.5106C5.96729 10.4982 5.96729 10.4871 5.96777 10.4755C6.33887 10.6819 6.76343 10.8059 7.21533 10.8198C6.47559 10.3264 5.9895 9.48291 5.9895 8.52722C5.9895 8.02258 6.12598 7.5498 6.36255 7.14282C7.7207 8.80933 9.75073 9.90552 12.04 10.0206C11.9927 9.81885 11.9683 9.60864 11.9683 9.39258C11.9683 7.87207 13.2019 6.63843 14.7229 6.63843C15.5151 6.63843 16.231 6.97339 16.7334 7.50879C17.3608 7.38501 17.9502 7.15576 18.4824 6.84033C18.2764 7.48315 17.8398 8.02258 17.2712 8.36377C17.8284 8.29712 18.3594 8.14929 18.853 7.92993C18.4844 8.48242 18.0168 8.96753 17.479 9.35632Z" fill="#927398" fill-opacity="1.000000" fill-rule="nonzero"/>
</svg>
