<svg width="24.000000" height="24.000000" viewBox="0 0 24 24" fill="none" xmlns="http://www.w3.org/2000/svg" xmlns:xlink="http://www.w3.org/1999/xlink">
	<defs/>
	<path id="Vector" d="M12 0C5.3728 0 0 5.37256 0 12C0 18.6274 5.3728 24 12 24C18.6272 24 24 18.6274 24 12C24 5.37256 18.6272 0 12 0ZM18.0872 13.2979C18.6462 13.8441 19.238 14.3583 19.7402 14.9611C19.9626 15.2277 20.1724 15.5034 20.3318 15.8135C20.5598 16.2556 20.354 16.7406 19.9583 16.7668L17.4998 16.7664C16.8647 16.8188 16.3596 16.5629 15.9336 16.1288C15.5935 15.7828 15.2781 15.4133 14.9504 15.0555C14.8167 14.9087 14.6758 14.7705 14.5078 14.6617C14.1726 14.4437 13.8813 14.5105 13.6895 14.8606C13.4937 15.2169 13.449 15.6117 13.4304 16.0082C13.4036 16.5879 13.2288 16.7394 12.6472 16.7666C11.4043 16.8248 10.2251 16.6362 9.12915 16.0096C8.16211 15.457 7.41382 14.677 6.76172 13.7938C5.49194 12.0721 4.51929 10.1826 3.64551 8.23877C3.44897 7.80103 3.59277 7.56677 4.07568 7.55774C4.87817 7.54224 5.68042 7.54419 6.48291 7.55701C6.80933 7.56213 7.02539 7.74902 7.15088 8.05713C7.58447 9.1239 8.11597 10.1389 8.78223 11.0803C8.95972 11.3309 9.14087 11.5809 9.39893 11.7579C9.68384 11.9534 9.90088 11.8888 10.0352 11.5708C10.1211 11.3688 10.158 11.1527 10.1768 10.9362C10.2405 10.1945 10.2483 9.45288 10.1377 8.71411C10.0688 8.25183 9.80884 7.95325 9.34814 7.86584C9.11328 7.82141 9.14771 7.7345 9.26196 7.60046C9.45996 7.36865 9.64575 7.22534 10.0166 7.22534L12.7942 7.22485C13.2319 7.31079 13.3303 7.5072 13.3896 7.94812L13.3921 11.0348C13.387 11.2054 13.4778 11.7113 13.7842 11.823C14.0298 11.9041 14.1919 11.707 14.3386 11.5516C15.0046 10.8448 15.4792 10.0105 15.9043 9.14697C16.0918 8.76624 16.2537 8.37219 16.4109 7.97729C16.5278 7.68542 16.7095 7.54175 17.0388 7.54663L19.7136 7.54993C19.7925 7.54993 19.8726 7.55066 19.9507 7.56409C20.4014 7.64124 20.5249 7.83521 20.3855 8.2749C20.166 8.96582 19.7395 9.54126 19.3225 10.1183C18.8757 10.7361 18.3992 11.3322 17.9565 11.9526C17.55 12.5198 17.5823 12.8053 18.0872 13.2979Z" fill="#927398" fill-opacity="1.000000" fill-rule="nonzero"/>
</svg>
