<svg width="100.000000" height="100.000000" viewBox="0 0 100 100" fill="none" xmlns="http://www.w3.org/2000/svg" xmlns:xlink="http://www.w3.org/1999/xlink">
	<desc>
			Created with Pixso.
	</desc>
	<defs>
		<clipPath id="clip342_1537">
			<rect id="airplane-around-earth" width="100.000000" height="100.000000" fill="white" fill-opacity="0"/>
		</clipPath>
	</defs>
	<rect id="airplane-around-earth" width="100.000000" height="100.000000" fill="#FFFFFF" fill-opacity="0"/>
	<g clip-path="url(#clip342_1537)">
		<path id="Vector" d="M99.9999 48.3125C99.9999 71.2783 83.0602 90.3621 61.0196 93.7271C61.2055 92.7078 61.2576 91.6521 61.1325 90.5825C61.1325 90.5825 61.0008 89.457 60.8286 87.9839C68.6539 86.6509 75.7189 83.0601 81.3187 77.8962C80.9827 77.6167 80.6478 77.2542 80.3177 76.7727C78.8305 74.6025 80.7753 72.4495 80.7753 70.5518C80.7753 68.6902 77.0225 68.8433 76.8851 67.6104C76.4109 63.3408 79.5052 63.2827 81.1548 61.6331C82.8046 59.9834 79.5243 56.2329 77.4055 56.4749C75.2723 56.7026 69.2679 55.4897 69.8166 50.8958C70.4851 45.3005 62.688 45.7942 61.5715 43.1826C59.9439 39.3757 62.6496 34.7065 66.1787 33.6458C71.1774 32.1433 76.1017 28.0654 75.7171 23.5259C75.2813 18.3845 72.9542 13.7478 69.1214 10.9934C65.1328 9.37744 60.832 8.37817 56.3323 8.12622C52.3165 8.28491 48.7857 9.17749 48.9469 11.0161C49.3418 15.5215 62.1541 16.6919 60.004 20.9036C58.8831 23.0991 50.4707 26.198 52.0418 29.4658C53.0637 31.5908 55.5786 29.7695 54.6396 33.8491C54.2076 35.7261 52.5617 39.2532 50.0305 39.4807C47.4421 39.7224 45.2867 32.8652 38.2413 32.6404C34.9106 32.5339 30.2183 37.8372 34.2026 41.5996C36.6153 43.8779 41.1429 38.8611 42.4792 42.78C43.4209 45.5417 42.3524 51.343 46.7473 53.7676C48.3495 54.6514 50.8055 55.4216 53.2346 56.656C49.6292 57.3923 45.1992 58.7661 39.9679 60.7812L35.5604 59.6184C37.4055 58.0823 40.4034 57.0012 39.6491 53.645C38.5411 48.7141 29.9795 50.5737 24.0771 44.6714C22.2663 42.8611 18.4041 36.8491 18.4199 29.6262C15.4777 35.2148 13.8032 41.5703 13.8032 48.3125C13.8032 50.3879 13.9615 52.4272 14.266 54.4187C14.1965 54.4177 14.1279 54.4055 14.0586 54.4055C12.1998 54.4055 10.3768 54.7961 8.68723 55.5344C8.31403 53.1807 8.11484 50.77 8.11484 48.3127C8.11484 22.9802 28.7248 2.36963 54.0572 2.36963C79.39 2.36938 99.9999 22.98 99.9999 48.3125ZM65.5374 61.7034L54.3168 66.8611L54.4908 64.416L61.7598 61.1348C60.723 61.0605 59.6488 61.0322 58.5763 61.0322C54.5601 61.0322 47.7746 63.0652 40.2697 66.0442L16.2 59.6953C13.9506 59.1018 11.5558 59.4673 9.58575 60.7051L8.40225 61.4485C7.24686 62.1743 7.23459 63.854 8.37921 64.5969L22.848 73.9839C19.3916 75.7515 16.1124 77.5466 13.2215 79.2612L5.79703 75.3306C4.58426 74.6885 3.15045 74.6123 1.87677 75.1226L1.17398 75.4043C0.125946 75.8237 -0.31311 77.0701 0.240814 78.054L4.33084 85.3206L4.33264 85.3201C2.78949 86.6475 1.9101 87.7485 1.9101 88.5105C1.9101 90.7908 4.71631 91.3608 7.18982 91.3608C11.6016 91.3608 69.8642 78.0208 69.8642 65.9351C69.8639 63.5417 68.2269 62.3447 65.5374 61.7034ZM40.9724 85.2996L53.7931 80.7832C54.3578 80.5842 54.9612 80.9607 55.0309 81.5554L56.1548 91.1658C56.4357 93.5671 55.1441 95.8782 52.9516 96.8975L51.7491 97.4563C50.9982 97.8052 50.1073 97.6182 49.5601 96.9968L40.5817 86.7974C40.1446 86.3008 40.3482 85.5195 40.9724 85.2996Z" fill="#F25C3A" fill-opacity="1.000000" fill-rule="nonzero"/>
	</g>
</svg>
