<svg width="100.000000" height="100.000000" viewBox="0 0 100 100" fill="none" xmlns="http://www.w3.org/2000/svg" xmlns:xlink="http://www.w3.org/1999/xlink">
	<desc>
			Created with Pixso.
	</desc>
	<defs>
		<clipPath id="clip63_103">
			<rect id="bar-chart" width="100.000000" height="100.000000" fill="white" fill-opacity="0"/>
		</clipPath>
	</defs>
	<rect id="bar-chart" width="100.000000" height="100.000000" fill="#FFFFFF" fill-opacity="0"/>
	<g clip-path="url(#clip63_103)">
		<path id="Vector" d="M99.7375 55.3833L93.4875 46.0083C92.908 45.1377 91.4673 45.1377 90.8877 46.0083L84.6377 55.3833C84.3174 55.8628 84.2876 56.4785 84.5596 56.9863C84.8313 57.4941 85.3611 57.813 85.9377 57.813L87.208 57.813C84.8877 76.3442 68.8625 90.6255 50.0002 90.6255C34.6079 90.6255 20.5439 80.98 15.0032 66.6255C14.7705 66.0239 14.1924 65.6255 13.5454 65.6255L6.91113 65.6221C6.41113 65.6221 5.94067 65.8613 5.64697 66.2661C5.35327 66.6724 5.27051 67.1943 5.42505 67.6675C11.7314 87.0083 29.6455 100 50.0002 100C74.0674 100 94.2783 81.5879 96.6438 57.813L98.4377 57.813C99.0142 57.813 99.5439 57.4956 99.8157 56.9878C100.088 56.48 100.056 55.8628 99.7375 55.3833Z" fill="#F25C3A" fill-opacity="1.000000" fill-rule="nonzero"/>
		<path id="Vector" d="M7.8125 54.6875C8.33447 54.6875 8.82178 54.4268 9.11255 53.9922L15.3625 44.6172C15.6829 44.1377 15.7124 43.522 15.4407 43.0142C15.1687 42.5049 14.6392 42.1875 14.0625 42.1875L12.7905 42.1875C15.1125 23.6562 31.1375 9.375 50 9.375C61.9062 9.375 72.8423 14.8438 80.0046 24.3779C80.3296 24.8076 80.8484 25.0498 81.3875 24.9971C81.925 24.9517 82.3984 24.6328 82.6453 24.1533L85.7656 18.0654C86.0562 17.5015 85.9751 16.8154 85.561 16.3359C76.6375 5.95459 63.6765 0 50 0C25.9329 0 5.72021 18.4126 3.3562 42.1875L1.5625 42.1875C0.98584 42.1875 0.456299 42.5049 0.184326 43.0127C-0.0874023 43.5205 -0.0578613 44.1377 0.262451 44.6157L6.51245 53.9907C6.80322 54.4268 7.29053 54.6875 7.8125 54.6875Z" fill="#F25C3A" fill-opacity="1.000000" fill-rule="nonzero"/>
		<path id="Vector" d="M85.5374 34.8721C86.1953 36.8174 86.6953 38.8359 87.0217 40.8721C87.1438 41.6313 87.7969 42.1875 88.5657 42.1875L94.886 42.186C95.3374 42.186 95.7671 41.9907 96.064 41.6504C96.3608 41.3096 96.4954 40.8564 96.4329 40.4097C95.8157 35.9331 94.553 31.5801 92.6829 27.4707C92.4485 26.9565 91.9546 26.6079 91.3921 26.561C90.8313 26.5 90.2844 26.7734 89.9688 27.2407L85.7266 33.4956C85.45 33.8984 85.3811 34.4097 85.5374 34.8721Z" fill="#F25C3A" fill-opacity="1.000000" fill-rule="nonzero"/>
		<path id="Vector" d="M95.3125 14.0625L87.5 14.0625L87.5 17.1875L92.0298 17.1875L74.2563 39.0625L54.6875 39.0625C54.2937 39.0625 53.9141 39.2124 53.6235 39.4814L32.1985 59.375L3.125 59.375L3.125 62.5L32.8125 62.5C33.2063 62.5 33.5874 62.3501 33.8765 62.0811L55.3015 42.1875L75 42.1875C75.4702 42.1875 75.9155 41.9751 76.2124 41.6108L93.75 20.0264L93.75 23.4375L96.875 23.4375L96.875 15.625C96.875 14.7607 96.1765 14.0625 95.3125 14.0625Z" fill="#F25C3A" fill-opacity="1.000000" fill-rule="nonzero"/>
		<path id="Vector" d="M42.1875 20.3125L42.1875 46.6265L53.0891 36.2529C53.3796 35.978 53.7642 35.8252 54.1641 35.8232L62.5 35.8047L62.5 20.3125L42.1875 20.3125Z" fill="#F25C3A" fill-opacity="1.000000" fill-rule="nonzero"/>
		<path id="Vector" d="M39.0625 29.6875L21.875 29.6875L21.875 56.25L32.0735 56.25L39.0625 49.6001L39.0625 29.6875Z" fill="#F25C3A" fill-opacity="1.000000" fill-rule="nonzero"/>
		<path id="Vector" d="M65.625 45.3125L65.625 83.6826C72.4343 80.1655 78 74.4346 81.25 67.4033L81.25 45.3125L65.625 45.3125Z" fill="#F25C3A" fill-opacity="1.000000" fill-rule="nonzero"/>
		<path id="Vector" d="M39.0625 61.9438L35.5718 65.2046C35.2827 65.4736 34.9016 65.625 34.5046 65.625L21.875 65.625L21.875 72.875C26.1016 78.8486 32.1609 83.3452 39.0625 85.6875L39.0625 61.9438Z" fill="#F25C3A" fill-opacity="1.000000" fill-rule="nonzero"/>
		<path id="Vector" d="M62.5 45.3125L56.8672 45.3125L42.1875 59.0249L42.1875 86.5859C44.7188 87.1846 47.3374 87.5 50 87.5C54.3735 87.5 58.5984 86.6514 62.5 85.1045L62.5 45.3125Z" fill="#F25C3A" fill-opacity="1.000000" fill-rule="nonzero"/>
	</g>
</svg>
