<svg width="100.000000" height="100.000000" viewBox="0 0 100 100" fill="none" xmlns="http://www.w3.org/2000/svg" xmlns:xlink="http://www.w3.org/1999/xlink">
	<desc>
			Created with Pixso.
	</desc>
	<defs>
		<clipPath id="clip342_1525">
			<rect id="chef" width="100.000000" height="100.000000" fill="white" fill-opacity="0"/>
		</clipPath>
	</defs>
	<rect id="chef" width="100.000000" height="100.000000" fill="#FFFFFF" fill-opacity="0"/>
	<g clip-path="url(#clip342_1525)">
		<path id="Vector" d="M84.091 81.8184L15.9268 81.8184C14.6729 81.8184 13.6564 82.835 13.654 84.0889L13.6451 90.7161C13.6429 93.1951 14.606 95.5256 16.3572 97.2791C18.1106 99.0347 20.4388 100 22.918 100L77.0906 100C82.2043 100 86.3636 95.8408 86.3636 90.7273L86.3636 84.0911C86.3636 82.835 85.3473 81.8184 84.091 81.8184Z" fill="#F25C3A" fill-opacity="1.000000" fill-rule="nonzero"/>
		<path id="Vector" d="M75.0001 9.09106C73.6085 9.09106 72.179 9.23071 70.6654 9.5127C65.4652 3.44897 58.0123 0 50.0001 0C34.9611 0 22.7274 12.2336 22.7274 27.2727C22.7274 28.5266 21.7087 29.5457 20.4546 29.5457C19.2007 29.5457 18.1818 28.5269 18.1818 27.2727C18.1818 22.3521 19.3138 17.5913 21.5465 13.1238C21.9439 12.3291 21.8416 11.377 21.2868 10.6846C20.732 9.99658 19.8241 9.69019 18.9631 9.90112C7.79703 12.6865 0 22.634 0 34.0908C0 43.5369 5.32672 52.124 13.6896 56.3699L13.6651 74.9978C13.6651 75.5991 13.9027 76.1785 14.3289 76.6067C14.7571 77.033 15.3343 77.2727 15.9379 77.2727L84.0911 77.2727C85.3473 77.2727 86.3638 76.2561 86.3638 74.9998L86.3638 56.3364C94.6957 52.0793 100 43.5056 100 34.0908C100 20.3059 88.7852 9.09106 75.0001 9.09106ZM33.2608 63.1216C32.8368 63.4678 32.3265 63.6365 31.8205 63.6365C31.1636 63.6365 30.511 63.3525 30.0605 62.8064C29.3103 61.8896 22.7274 53.6956 22.7274 47.7273C22.7274 46.4709 23.7439 45.4546 25.0002 45.4546C26.2564 45.4546 27.2729 46.4709 27.2729 47.7273C27.2729 51.0166 31.1393 56.9514 33.5762 59.9209C34.3705 60.8933 34.2307 62.3247 33.2608 63.1216ZM52.2727 61.3638C52.2727 62.6199 51.2561 63.6365 49.9999 63.6365C48.7437 63.6365 47.7273 62.6199 47.7273 61.3638L47.7273 47.7273C47.7273 46.4709 48.7439 45.4546 50.0001 45.4546C51.2563 45.4546 52.2729 46.4709 52.2729 47.7273L52.2729 61.3638L52.2727 61.3638ZM69.9397 62.8064C69.489 63.3525 68.8387 63.6365 68.1819 63.6365C67.6737 63.6365 67.1632 63.4678 66.7415 63.1216C65.7716 62.3247 65.6295 60.8933 66.424 59.9233C68.8611 56.947 72.7272 51.0056 72.7272 47.7273C72.7272 46.4709 73.7438 45.4546 75.0001 45.4546C76.2563 45.4546 77.2728 46.4709 77.2728 47.7273C77.2728 53.6953 70.6899 61.8896 69.9397 62.8064Z" fill="#F25C3A" fill-opacity="1.000000" fill-rule="nonzero"/>
	</g>
</svg>
