<svg width="100.000000" height="100.000000" viewBox="0 0 100 100" fill="none" xmlns="http://www.w3.org/2000/svg" xmlns:xlink="http://www.w3.org/1999/xlink">
	<desc>
			Created with Pixso.
	</desc>
	<defs>
		<clipPath id="clip342_1582">
			<rect id="hearts" width="100.000000" height="100.000000" fill="white" fill-opacity="0"/>
		</clipPath>
	</defs>
	<rect id="hearts" width="100.000000" height="100.000000" fill="#FFFFFF" fill-opacity="0"/>
	<g clip-path="url(#clip342_1582)">
		<path id="Vector" d="M35.8236 52.3916C36.5726 52.3916 37.3218 52.1064 37.8937 51.5352L61.4135 28.0488C64.5156 24.9512 66.224 20.832 66.224 16.4507C66.224 12.0693 64.5156 7.95068 61.4135 4.85303C55.0128 -1.53906 44.5976 -1.53906 38.1968 4.85303L35.8236 7.22266L33.4506 4.85303C27.0497 -1.53906 16.6347 -1.53857 10.2338 4.85303C7.13177 7.95068 5.4234 12.0693 5.4234 16.4507C5.4234 20.832 7.13177 24.9512 10.2338 28.0488L33.7535 51.5352C34.3253 52.1064 35.0744 52.3916 35.8236 52.3916Z" fill="#F25C3A" fill-opacity="1.000000" fill-rule="nonzero"/>
		<path id="Vector" d="M91.1123 45.314C86.11 40.3188 77.9707 40.3188 72.9686 45.314L71.7767 46.5034L70.5853 45.314C65.5828 40.3188 57.4437 40.3184 52.4414 45.314C50.0168 47.7349 48.6816 50.9541 48.6816 54.3789C48.6816 57.8032 50.0168 61.0225 52.4414 63.4438L69.7064 80.6846C70.2785 81.2554 71.0275 81.541 71.7767 81.541C72.5258 81.541 73.275 81.2554 73.8469 80.6846L91.1123 63.4438C93.5367 61.0229 94.8721 57.8032 94.8721 54.3789C94.8721 50.9541 93.5369 47.7349 91.1123 45.314Z" fill="#F25C3A" fill-opacity="1.000000" fill-rule="nonzero"/>
		<path id="Vector" d="M38.4377 73.4741L38.2596 73.6523L38.0814 73.4741C34.2787 69.6772 28.0912 69.6772 24.2885 73.4741C22.4451 75.3149 21.4297 77.7632 21.4297 80.3667C21.4297 82.9707 22.4449 85.4185 24.2885 87.2593L36.1895 99.1436C36.7614 99.7148 37.5106 100 38.2596 100C39.0086 100 39.7578 99.7148 40.3297 99.1436L52.2307 87.2593C54.074 85.4185 55.0895 82.9707 55.0895 80.3667C55.0895 77.7632 54.0742 75.3149 52.2307 73.4741C48.4279 69.6772 42.2404 69.6772 38.4377 73.4741Z" fill="#F25C3A" fill-opacity="1.000000" fill-rule="nonzero"/>
		<path id="Vector" d="M75.6492 16.4512L79.9269 16.4512C81.5449 16.4512 82.8566 15.1396 82.8566 13.5215C82.8566 11.9033 81.5449 10.5918 79.9269 10.5918L75.6492 10.5918C74.0312 10.5918 72.7195 11.9033 72.7195 13.5215C72.7195 15.1396 74.0312 16.4512 75.6492 16.4512Z" fill="#F25C3A" fill-opacity="1.000000" fill-rule="nonzero"/>
		<path id="Vector" d="M86.3597 27.0435C87.9777 27.0435 89.2894 25.7319 89.2894 24.1138L89.2894 19.8423C89.2894 18.2241 87.9777 16.9126 86.3597 16.9126C84.7417 16.9126 83.43 18.2241 83.43 19.8423L83.43 24.1138C83.43 25.7319 84.7417 27.0435 86.3597 27.0435Z" fill="#F25C3A" fill-opacity="1.000000" fill-rule="nonzero"/>
		<path id="Vector" d="M97.0704 10.5918L92.7927 10.5918C91.1747 10.5918 89.863 11.9033 89.863 13.5215C89.863 15.1396 91.1747 16.4512 92.7927 16.4512L97.0704 16.4512C98.6884 16.4512 100 15.1396 100 13.5215C100 11.9033 98.6884 10.5918 97.0704 10.5918Z" fill="#F25C3A" fill-opacity="1.000000" fill-rule="nonzero"/>
		<path id="Vector" d="M86.3597 10.1309C87.9777 10.1309 89.2894 8.81934 89.2894 7.20117L89.2894 2.92969C89.2894 1.31152 87.9777 0 86.3597 0C84.7417 0 83.43 1.31152 83.43 2.92969L83.43 7.20117C83.43 8.81934 84.7417 10.1309 86.3597 10.1309Z" fill="#F25C3A" fill-opacity="1.000000" fill-rule="nonzero"/>
		<path id="Vector" d="M7.2074 55.4897L2.92969 55.4897C1.31171 55.4897 0 56.8013 0 58.4194C0 60.0376 1.31171 61.3491 2.92969 61.3491L7.2074 61.3491C8.82538 61.3491 10.1371 60.0376 10.1371 58.4194C10.1371 56.8013 8.82538 55.4897 7.2074 55.4897Z" fill="#F25C3A" fill-opacity="1.000000" fill-rule="nonzero"/>
		<path id="Vector" d="M13.6401 61.8101C12.0222 61.8101 10.7104 63.1216 10.7104 64.7397L10.7104 69.0112C10.7104 70.6294 12.0222 71.9409 13.6401 71.9409C15.2581 71.9409 16.5698 70.6294 16.5698 69.0112L16.5698 64.7397C16.5698 63.1216 15.2583 61.8101 13.6401 61.8101Z" fill="#F25C3A" fill-opacity="1.000000" fill-rule="nonzero"/>
		<path id="Vector" d="M27.2803 58.4194C27.2803 56.8013 25.9686 55.4897 24.3506 55.4897L20.0729 55.4897C18.4549 55.4897 17.1432 56.8013 17.1432 58.4194C17.1432 60.0376 18.4549 61.3491 20.0729 61.3491L24.3506 61.3491C25.9686 61.3491 27.2803 60.0376 27.2803 58.4194Z" fill="#F25C3A" fill-opacity="1.000000" fill-rule="nonzero"/>
		<path id="Vector" d="M13.6401 44.8975C12.0222 44.8975 10.7104 46.209 10.7104 47.8271L10.7104 52.0986C10.7104 53.7168 12.0222 55.0283 13.6401 55.0283C15.2581 55.0283 16.5698 53.7168 16.5698 52.0986L16.5698 47.8271C16.5698 46.209 15.2583 44.8975 13.6401 44.8975Z" fill="#F25C3A" fill-opacity="1.000000" fill-rule="nonzero"/>
	</g>
</svg>
