<svg width="208.000000" height="51.000000" viewBox="0 0 208 51" fill="none" xmlns="http://www.w3.org/2000/svg" xmlns:xlink="http://www.w3.org/1999/xlink">
	<desc>
			Created with Pixso.
	</desc>
	<defs/>
	<path id="Vector" d="M23.548 47.1729C23.6433 47.6895 23.7004 48.0146 23.3954 48.2441C22.728 47.1533 22.442 45.7759 22.2705 43.9575C22.0798 44.0918 21.8892 44.2256 21.6985 44.3594C21.6794 44.2446 21.6794 44.1299 21.6603 44.0151C21.9272 42.8286 21.6031 41.5083 21.1455 40.4556C20.9739 40.8193 20.8977 41.1826 20.6307 41.4697C20.2684 40.4746 19.9061 39.499 19.5439 38.5039C19.2197 37.2788 19.3342 35.71 19.4294 34.7339C19.7917 31.0977 18.0948 27.6147 16.703 25.7778C16.6648 25.7778 16.6458 25.7778 16.6077 25.7778C16.5695 25.9883 16.5314 26.1987 16.4932 26.4092C16.436 26.4092 16.3788 26.4282 16.3217 26.4282C15.5208 22.7158 11.6121 23.5386 11.002 17.7212C11.1163 17.6831 11.2307 17.6445 11.3452 17.6064C12.165 17.7788 12.2031 17.5107 12.6989 17.1279C12.718 17.5684 12.7371 17.8936 12.9658 18.0659C14.0145 18.6973 15.0823 19.3286 16.131 19.9604C15.2347 18.5059 14.3196 17.0322 13.4235 15.5781C13.1375 15.6929 12.8705 15.8076 12.5845 15.9224C12.5845 15.8843 12.5845 15.8647 12.5845 15.8267C12.8324 14.9463 12.4701 14.353 12.6989 13.3579C12.9277 12.3628 13.4235 11.1001 13.8619 10.0854C14.0526 10.0093 14.2625 9.93262 14.453 9.85596C17.0081 11.1763 19.3723 14.8315 22.1942 15.5972C24.5775 16.2476 27.4757 15.2715 29.5349 16.2861C31.0603 17.0322 31.823 19.6538 33.1005 20.4194C34.2253 20.6685 35.3694 20.8979 36.4944 21.1465C38.0959 21.644 39.3544 22.7734 40.8225 23.3477C40.8416 23.4624 40.8416 23.5771 40.8606 23.6919C39.7738 24.8594 38.401 25.835 36.1893 26.084C37.4286 27.6533 38.973 30.2749 40.8035 31.0786C40.7844 31.1743 40.7653 31.251 40.7462 31.3467C40.4031 31.4038 40.0598 31.4805 39.7167 31.5381C39.7738 31.5381 39.8311 31.519 39.8882 31.519C41.0322 32.5137 42.1953 33.5283 43.3394 34.5234C43.3394 34.5615 43.3394 34.5806 43.3394 34.6191C43.0533 34.6191 42.7483 34.6191 42.4623 34.6191C42.7101 35.4419 43.4156 36.0161 44.1211 36.3032C44.0638 36.3984 44.0258 36.4941 43.9685 36.5898C43.7397 36.6665 43.511 36.7432 43.3013 36.8389C44.3308 37.2217 46.1803 38.0254 47.1718 38.8481C49.5552 34.9253 50.928 30.313 50.9089 25.376C50.8326 11.272 39.3734 -0.0952148 25.3212 0.000488281C11.2307 0.0195312 -0.0759277 11.521 0.000366211 25.6245C0.0766602 39.5181 11.2117 50.7515 24.978 51C24.6348 49.6987 24.4822 47.5552 23.548 47.1729Z" fill="#927398" fill-opacity="1.000000" fill-rule="evenodd"/>
	<path id="Vector" d="M94.637 16.0288C89.3533 16.0288 85.0759 20.314 85.0759 25.6069C85.0759 30.8999 89.3533 35.1851 94.637 35.1851C99.9207 35.1851 104.198 30.8999 104.198 25.6069C104.198 20.314 99.9207 16.0288 94.637 16.0288ZM94.637 31.6562C91.2822 31.6562 88.5984 28.9395 88.5984 25.6069C88.5984 22.2744 91.3103 19.5576 94.637 19.5576C97.9917 19.5576 100.676 22.2744 100.676 25.6069C100.676 28.9395 97.9639 31.6562 94.637 31.6562ZM81.2739 16.1968L76.8567 28.7715L72.6074 16.0288L70.6226 16.0288L66.1216 28.7715L62.012 16.1968L58.1819 16.1968L64.7236 35.1011L67.2678 35.1011L71.5449 22.9463L75.6267 35.1011L78.1707 35.1011L85.1038 16.1968L81.2739 16.1968ZM110.6 16.1968L106.994 16.1968L106.994 34.6812L116.303 34.6812L116.303 31.5723L110.6 31.5723L110.6 16.1968ZM130.701 19.3057L131.232 16.1968L118.791 16.1968L118.791 34.6812L122.398 34.6812L122.398 26.5312L129.275 26.5312L129.806 23.4224L122.398 23.4224L122.398 19.3057L130.701 19.3057Z" fill="#927398" fill-opacity="1.000000" fill-rule="evenodd"/>
	<path id="Vector" d="M177.08 18.2134C175.039 16.7012 172.803 16.4209 170.231 16.4209L153.429 16.4209L153.96 19.6138L169.029 19.6138L169.029 19.5298L170.147 19.5298C171.377 19.5298 173.194 19.6416 174.676 20.7617C176.13 21.8823 176.94 23.7588 176.94 25.6909C176.94 27.6514 176.102 29.5557 174.648 30.5923C173.054 31.7686 171.042 31.8242 170.147 31.8242L169.029 31.8242L169.029 31.7686L155.973 31.7686L156.504 34.9331L170.203 34.9331C172.775 34.9331 174.788 34.6812 176.969 33.1685C179.401 31.4604 180.687 28.7998 180.687 25.7192C180.631 22.6104 179.317 19.9219 177.08 18.2134ZM168.945 23.6743L154.631 23.6743L155.162 26.8672L168.973 26.8672L168.973 23.6743L168.945 23.6743ZM183.762 34.9053L187.368 34.9053L187.368 16.4209L183.762 16.4209L183.762 34.9053ZM200.228 16.0288L197.516 16.0288L189.521 34.9053L193.435 34.9053L195.056 31.0122L202.493 31.0122L204.114 34.9053L208 34.9053L200.228 16.0288ZM196.202 28.0996L198.858 21.4341L201.458 28.0996L196.202 28.0996ZM147.418 16.085L142.191 28.1836L137.187 16.085L134.698 16.085L131.26 34.9053L134.922 34.9053L136.795 23.5063L141.632 35.1572L142.638 35.1572L147.698 23.5063L149.347 34.9053L153.01 34.9053L149.907 16.085L147.418 16.085Z" fill="#927398" fill-opacity="1.000000" fill-rule="evenodd"/>
</svg>
