<svg width="40.384277" height="40.000000" viewBox="0 0 40.3843 40" fill="none" xmlns="http://www.w3.org/2000/svg" xmlns:xlink="http://www.w3.org/1999/xlink">
	<desc>
			Created with Pixso.
	</desc>
	<defs/>
	<path id="Vector" d="M18.6797 36.9982C18.7554 37.4034 18.8008 37.6586 18.5591 37.8386C18.0293 36.9832 17.8027 35.9025 17.6665 34.4766C17.5151 34.5817 17.3638 34.6868 17.2129 34.7917C17.1978 34.7018 17.1978 34.6117 17.1826 34.5216C17.394 33.5911 17.1372 32.5554 16.7739 31.73C16.6382 32.0151 16.5776 32.3003 16.3657 32.5254C16.0781 31.745 15.791 30.9795 15.5034 30.199C15.2466 29.2384 15.3374 28.0077 15.4126 27.2422C15.7002 24.3904 14.354 21.6588 13.25 20.2179C13.2197 20.2179 13.2046 20.2179 13.1743 20.2179C13.144 20.3829 13.1138 20.5481 13.0835 20.7131C13.0381 20.7131 12.9927 20.7281 12.9473 20.7281C12.312 17.8164 9.21143 18.4618 8.72754 13.899C8.81836 13.869 8.90918 13.839 9 13.809C9.65039 13.944 9.68018 13.7339 10.0737 13.4337C10.0889 13.7789 10.104 14.0341 10.2856 14.1692C11.1172 14.6644 11.9644 15.1598 12.7964 15.655C12.0854 14.5144 11.3594 13.3586 10.6484 12.218C10.4214 12.308 10.21 12.3981 9.98291 12.4882C9.98291 12.4581 9.98291 12.4431 9.98291 12.4131C10.1797 11.7227 9.89209 11.2573 10.0737 10.4769C10.2554 9.69641 10.6484 8.70581 10.9961 7.91028C11.1475 7.85034 11.314 7.79028 11.4653 7.73022C13.4917 8.76587 15.3677 11.6326 17.606 12.2329C19.4966 12.7433 21.7954 11.9778 23.4292 12.7733C24.6392 13.3586 25.2441 15.4149 26.2573 16.0153C27.1499 16.2104 28.0576 16.3905 28.9497 16.5857C30.2202 16.9758 31.2188 17.8615 32.3833 18.3116C32.3984 18.4017 32.3984 18.4918 32.4136 18.5819C31.5513 19.4974 30.4624 20.2629 28.708 20.458C29.6909 21.6887 30.916 23.745 32.3682 24.3754C32.353 24.4504 32.3379 24.5105 32.3228 24.5856C32.0503 24.6306 31.7783 24.6906 31.5059 24.7356C31.5513 24.7356 31.5967 24.7206 31.6421 24.7206C32.5498 25.5011 33.4722 26.2966 34.3799 27.077C34.3799 27.1071 34.3799 27.1221 34.3799 27.1521C34.1528 27.1521 33.9106 27.1521 33.6841 27.1521C33.8809 27.7975 34.4404 28.2478 35 28.4729C34.9546 28.548 34.9243 28.623 34.8789 28.6981C34.6973 28.7581 34.5161 28.8181 34.3496 28.8932C35.1665 29.1934 36.6333 29.8237 37.4199 30.4691C39.3105 27.3922 40.3994 23.775 40.3843 19.9027C40.3237 8.84094 31.2339 -0.074585 20.0864 0.000488281C8.90918 0.0155029 -0.0600586 9.03601 0.000488281 20.0978C0.0610352 30.9945 8.89404 39.8049 19.8145 40C19.542 38.9794 19.4209 37.2983 18.6797 36.9982Z" fill="#F25C3A" fill-opacity="1.000000" fill-rule="evenodd"/>
</svg>
