<svg width="100.000000" height="100.000000" viewBox="0 0 100 100" fill="none" xmlns="http://www.w3.org/2000/svg" xmlns:xlink="http://www.w3.org/1999/xlink">
	<desc>
			Created with Pixso.
	</desc>
	<defs>
		<clipPath id="clip62_466">
			<rect id="eye (1)" width="100.000000" height="100.000000" fill="white" fill-opacity="0"/>
		</clipPath>
	</defs>
	<rect id="eye (1)" width="100.000000" height="100.000000" fill="#FFFFFF" fill-opacity="0"/>
	<g clip-path="url(#clip62_466)">
		<path id="Vector" d="M53.864 19.0806C48.1262 19.0806 43.1777 19.6069 38.9839 20.8472C20.0764 25.708 0 50.8086 0 50.8086C0 50.8086 25.6455 80.9194 46.1379 80.9194C51.8748 80.9194 56.8242 80.3916 61.0173 79.1504C79.9248 74.2896 100 49.1919 100 49.1919C100 49.1919 74.3567 19.0806 53.864 19.0806ZM48.842 71.0762C37.8345 71.0762 28.9138 62.1543 28.9138 51.1479C28.9138 40.1396 37.8345 31.2188 48.842 31.2188C59.8494 31.2188 68.7712 40.1396 68.7712 51.1479C68.7712 62.1543 59.8494 71.0762 48.842 71.0762Z" fill="#F25C3A" fill-opacity="1.000000" fill-rule="nonzero"/>
		<path id="Vector" d="M49.377 41.7192C49.7024 42.3257 49.9045 43.0078 49.9045 43.7451C49.9045 46.1294 47.9692 48.0625 45.5864 48.0625C43.7117 48.0625 42.1299 46.8579 41.5342 45.1885C40.2109 46.8135 39.3848 48.8623 39.3848 51.1221C39.3848 56.3442 43.6187 60.5801 48.8418 60.5801C54.0649 60.5801 58.2988 56.3467 58.2988 51.1221C58.2988 46.0806 54.344 42.0044 49.377 41.7192Z" fill="#F25C3A" fill-opacity="1.000000" fill-rule="nonzero"/>
	</g>
</svg>
