<svg width="44.000000" height="44.000000" viewBox="0 0 44 44" fill="none" xmlns="http://www.w3.org/2000/svg" xmlns:xlink="http://www.w3.org/1999/xlink">
	<desc>
			Created with Pixso.
	</desc>
	<defs>
		<clipPath id="clip342_1648">
			<rect id="start-up" width="44.000000" height="44.000000" fill="white" fill-opacity="0"/>
		</clipPath>
	</defs>
	<rect id="start-up" width="44.000000" height="44.000000" fill="#FFFFFF" fill-opacity="0"/>
	<g clip-path="url(#clip342_1648)">
		<path id="Vector" d="M6.42307 28.1943C6.17398 28.6909 6.271 29.2915 6.66342 29.6841L6.97864 29.9995C7.88937 28.9204 8.95084 27.749 10.2382 26.4619C10.3292 26.3711 10.4229 26.3271 10.5142 26.2432L8.48624 24.2148C7.30728 26.3472 6.61978 27.8042 6.42307 28.1943Z" fill="#F25C3A" fill-opacity="1.000000" fill-rule="nonzero"/>
		<path id="Vector" d="M17.5302 33.7539C16.2398 35.0444 15.0716 36.1079 13.9984 37.019L14.4254 37.4463C14.8215 37.8423 15.4278 37.9375 15.9263 37.6812C16.594 37.3374 17.644 36.8433 19.873 35.6016L17.7495 33.478C17.6655 33.5698 17.6216 33.6631 17.5302 33.7539Z" fill="#F25C3A" fill-opacity="1.000000" fill-rule="nonzero"/>
		<path id="Vector" d="M16.8431 27.1509C15.9116 26.2192 13.2918 27.0547 12.0612 28.2847C7.94424 32.4019 6.08484 35.3208 5.24997 37.0439C5.01062 37.5381 5.11032 38.1289 5.49838 38.5171C5.88712 38.9062 6.47928 39.0049 6.97342 38.7656C8.65826 37.9473 11.5415 36.0967 15.7075 31.9312C17.0607 30.5771 17.7284 28.0366 16.8441 27.1519L16.8431 27.1509Z" fill="#F25C3A" fill-opacity="1.000000" fill-rule="nonzero"/>
		<path id="Vector" d="M4.02359 17.1626L0.377625 20.8086C-0.0346069 21.2207 -0.119202 21.8589 0.172852 22.3647C0.457855 22.8633 1.05472 23.1177 1.62271 22.9653C3.59323 22.437 5.32709 22.2139 6.49463 22.5132C8.15564 19.5601 9.94052 16.8418 11.8308 14.3726C10.7375 13.6714 7.12439 14.062 4.02359 17.1626Z" fill="#F25C3A" fill-opacity="1.000000" fill-rule="nonzero"/>
		<path id="Vector" d="M21.819 43.8618C22.3155 44.1128 22.9167 44.0161 23.3098 43.6226L26.9561 39.9766C29.7789 37.1528 30.2758 33.5103 29.6353 32.355C26.8812 34.4307 24.0913 36.1831 21.4883 37.6504C21.6679 38.6646 21.5484 39.6484 21.1237 42.522C21.0408 43.0781 21.3282 43.6167 21.819 43.8618Z" fill="#F25C3A" fill-opacity="1.000000" fill-rule="nonzero"/>
		<path id="Vector" d="M25.5923 12.9307C24.0847 14.4385 24.0847 16.8916 25.5923 18.3994C27.1002 19.9072 29.5534 19.9072 31.0614 18.3994C32.5693 16.8916 32.5693 14.4385 31.0614 12.9307C29.5534 11.4229 27.1002 11.4229 25.5923 12.9307Z" fill="#F25C3A" fill-opacity="1.000000" fill-rule="nonzero"/>
		<path id="Vector" d="M43.9242 1.25732C43.8778 0.620117 43.3703 0.116211 42.7348 0.0683594C39.5689 -0.169922 36.4153 0.219238 33.3243 1.16455C33.5569 3.28857 34.6553 5.58643 36.5305 7.46191C38.4282 9.35889 40.7888 10.457 42.9503 10.6626C43.7828 7.74512 44.1776 4.62061 43.9242 1.25732Z" fill="#F25C3A" fill-opacity="1.000000" fill-rule="nonzero"/>
		<path id="Vector" d="M34.7077 9.28467C32.5626 7.13965 31.2527 4.56689 30.8324 2.06201C23.0917 5.23682 15.6816 12.1694 9.82608 21.9087L12.7352 24.8179C14.7228 24.0107 17.1358 23.7974 18.6662 25.3276C20.1987 26.8604 19.9815 29.2725 19.1748 31.2573L22.1796 34.2622C29.6729 29.7461 38.3969 22.6309 42.1067 13.1646C39.5406 12.7769 36.8877 11.4648 34.7077 9.28467ZM32.8842 20.2227C30.3715 22.7354 26.2824 22.7354 23.7694 20.2227C21.2564 17.7095 21.2564 13.6201 23.7694 11.1074C26.2824 8.59473 30.3715 8.59473 32.8842 11.1074C35.3972 13.6206 35.3972 17.7095 32.8842 20.2227Z" fill="#F25C3A" fill-opacity="1.000000" fill-rule="nonzero"/>
	</g>
</svg>
