<svg width="100.000244" height="100.000000" viewBox="0 0 100 100" fill="none" xmlns="http://www.w3.org/2000/svg" xmlns:xlink="http://www.w3.org/1999/xlink">
	<desc>
			Created with Pixso.
	</desc>
	<defs>
		<clipPath id="clip342_1594">
			<rect id="stars-group" width="100.000183" height="100.000000" fill="white" fill-opacity="0"/>
		</clipPath>
	</defs>
	<rect id="stars-group" width="100.000183" height="100.000000" fill="#FFFFFF" fill-opacity="0"/>
	<g clip-path="url(#clip342_1594)">
		<path id="Vector" d="M14.1873 99.6533C14.7553 100.07 15.4937 100.108 16.0996 99.7861L34.9006 89.9028L53.7017 99.7861C53.9667 99.9185 54.2507 99.9946 54.5536 99.9946C54.9323 99.9946 55.292 99.8809 55.6141 99.6533C56.163 99.2559 56.447 98.5552 56.3336 97.874L52.7362 76.9331L67.9587 62.1084C68.451 61.6348 68.6215 60.9155 68.413 60.2529C68.2047 59.5898 67.6367 59.1167 66.9551 59.022L45.9388 55.9736L36.5289 36.9263C35.923 35.6958 33.8971 35.6958 33.2913 36.9263L23.8624 55.9736L2.84613 59.022C2.16449 59.1167 1.5965 59.6089 1.38824 60.2529C1.17993 60.9155 1.35034 61.6348 1.84265 62.1084L17.0652 76.9331L13.4678 97.874C13.3353 98.5742 13.6193 99.2559 14.1873 99.6533Z" fill="#F25C3A" fill-opacity="1.000000" fill-rule="nonzero"/>
		<path id="Vector" d="M98.6119 75.5127C98.4037 74.8501 97.8357 74.3765 97.1541 74.2817L88.5963 73.0322L84.7717 65.2695C84.4686 64.645 83.844 64.2661 83.1433 64.2661C82.4429 64.2661 81.8179 64.6636 81.515 65.2695L77.6904 73.0322L69.1324 74.2817C68.4508 74.3765 67.8828 74.8691 67.6747 75.5127C67.4663 76.1753 67.6368 76.895 68.1289 77.3682L74.3202 83.4077L72.8623 91.9282C72.7488 92.6099 73.0327 93.291 73.5818 93.708C74.1309 94.1055 74.8882 94.1621 75.4943 93.8403L83.1433 89.8071L90.7924 93.8403C91.0575 93.9727 91.3414 94.0488 91.6444 94.0488C92.0231 94.0488 92.3828 93.9351 92.7047 93.708C93.2538 93.3101 93.5377 92.6099 93.4242 91.9282L91.9664 83.4077L98.1576 77.3682C98.6498 76.895 98.8202 76.1753 98.6119 75.5127Z" fill="#F25C3A" fill-opacity="1.000000" fill-rule="nonzero"/>
		<path id="Vector" d="M61.8809 28.2925C61.275 27.062 59.2493 27.062 58.6432 28.2925L55.8788 33.897L49.7064 34.7866C49.0248 34.8813 48.4568 35.374 48.2485 36.0176C48.0403 36.6802 48.2107 37.3999 48.7029 37.873L53.1713 42.2275L52.111 48.3813C51.9972 49.0625 52.2811 49.7441 52.8304 50.1611C53.1523 50.3882 53.5121 50.502 53.8907 50.502C54.1747 50.502 54.4778 50.4263 54.7238 50.2749L60.2524 47.3589L65.781 50.2368C66.0459 50.3691 66.3298 50.3882 66.6139 50.3882C66.6329 50.3882 66.6517 50.3882 66.6517 50.3882C67.6553 50.3882 68.4694 49.6309 68.4694 48.6274C68.4694 48.4004 68.4316 48.23 68.3557 48.0215L67.3523 42.228L71.8206 37.873C72.3131 37.3999 72.4833 36.6802 72.275 36.0176C72.0665 35.355 71.4985 34.8818 70.8171 34.7871L64.6448 33.897L61.8809 28.2925Z" fill="#F25C3A" fill-opacity="1.000000" fill-rule="nonzero"/>
		<path id="Vector" d="M20.4543 5.32617C19.6212 3.62256 16.838 3.62256 15.986 5.32617L12.1993 13.0132L3.71704 14.2441C2.77039 14.3765 1.99408 15.0391 1.71008 15.9292C1.42609 16.8379 1.65332 17.8223 2.3349 18.4854L8.46936 24.4683L7.0304 32.9126C6.87897 33.8403 7.25763 34.7871 8.01495 35.3359C8.45044 35.6577 8.96167 35.8096 9.47284 35.8096C9.87048 35.8096 10.2681 35.6958 10.6278 35.5063L18.2202 31.4927L25.8125 35.4497C26.1722 35.6392 26.5698 35.6577 26.9675 35.6577C26.9864 35.6577 27.0053 35.6577 27.0242 35.6577C28.4064 35.6577 29.5045 34.6167 29.5045 33.2344C29.5045 32.9126 29.4478 32.6855 29.3342 32.4014L27.9709 24.4302L34.1054 18.4473C34.787 17.7847 35.0331 16.8003 34.7302 15.8911C34.4272 14.9824 33.651 14.3389 32.7233 14.2061L24.241 12.9756L20.4543 5.32617Z" fill="#F25C3A" fill-opacity="1.000000" fill-rule="nonzero"/>
		<path id="Vector" d="M93.765 47.8887C93.6512 47.5669 93.3672 47.3208 93.0266 47.2637L90.1676 46.8472L88.899 44.2725C88.5962 43.6475 87.5737 43.6475 87.2708 44.2725L86.0022 46.8472L83.1431 47.2637C82.8022 47.3208 82.5183 47.5479 82.4049 47.8887C82.291 48.2104 82.3857 48.5703 82.6321 48.8164L84.6957 50.8237L84.2034 53.6636C84.1466 54.0044 84.2789 54.3452 84.5629 54.5532C84.8469 54.7617 85.2067 54.7803 85.5096 54.6289L88.0657 53.2847L90.6217 54.6289C90.7542 54.7046 90.9056 54.7427 91.0382 54.7427C91.2275 54.7427 91.4169 54.6855 91.5684 54.5723C91.8523 54.3643 91.9849 54.0234 91.9281 53.6826L91.4358 50.8423L93.4994 48.8354C93.7839 48.5894 93.8785 48.2295 93.765 47.8887Z" fill="#F25C3A" fill-opacity="1.000000" fill-rule="nonzero"/>
		<path id="Vector" d="M87.5924 22.6694C87.4222 22.3667 87.0814 22.2153 86.7405 22.2339L83.8627 22.4805L82.0449 20.2461C81.6094 19.7158 80.6249 19.9434 80.4734 20.606L79.8108 23.4082L77.1222 24.4492C76.8003 24.582 76.5732 24.8657 76.5542 25.2065C76.5164 25.5474 76.6868 25.8882 76.9896 26.0586L79.451 27.5542L79.6215 30.4321C79.6404 30.7729 79.8486 31.0762 80.1705 31.2085C80.4922 31.3413 80.8521 31.2842 81.1172 31.0571L83.2946 29.1826L86.0775 29.9209C86.2292 29.959 86.3616 29.959 86.5132 29.9209C86.7025 29.8833 86.8728 29.7886 86.9866 29.6372C87.2136 29.3721 87.2706 29.0122 87.1381 28.6904L86.021 26.0396L87.5735 23.6162C87.7631 23.332 87.7817 22.9727 87.5924 22.6694Z" fill="#F25C3A" fill-opacity="1.000000" fill-rule="nonzero"/>
		<path id="Vector" d="M62.2784 6.15918C62.0134 5.70508 61.5021 5.45898 60.9908 5.49658L56.6361 5.85645L53.8718 2.46729C53.2091 1.65332 51.7134 2.0127 51.4673 3.01611L50.4637 7.27637L46.3931 8.8667C45.9008 9.05615 45.5599 9.51074 45.5221 10.022C45.4843 10.5518 45.7303 11.0439 46.1848 11.3091L49.9147 13.5811L50.1609 17.9551C50.1987 18.4849 50.5206 18.9395 50.9939 19.1475C51.4673 19.356 52.0353 19.2612 52.4331 18.9204L55.7465 16.0615L59.9686 17.1787C60.1958 17.2354 60.4041 17.2354 60.6312 17.1978C60.9153 17.1406 61.1614 16.9893 61.3507 16.7622C61.6915 16.3643 61.7863 15.8154 61.578 15.3232L59.8739 11.29L62.2406 7.61719C62.5436 7.18164 62.5436 6.61377 62.2784 6.15918Z" fill="#F25C3A" fill-opacity="1.000000" fill-rule="nonzero"/>
		<path id="Vector" d="M81.0227 2.14551C80.8903 1.91797 80.625 1.78564 80.3601 1.80469L78.1071 1.99365L76.6681 0.23291C76.327 -0.183594 75.551 -0.0131836 75.4182 0.51709L74.9071 2.71338L72.8054 3.54639C72.5593 3.64111 72.37 3.88721 72.3511 4.15234C72.3322 4.41748 72.4648 4.68262 72.692 4.81494L74.623 5.98877L74.7556 8.26074C74.7747 8.52588 74.9449 8.77197 75.191 8.8667C75.4374 8.98047 75.7214 8.92334 75.9294 8.75293L77.6525 7.27637L79.8489 7.84424C79.9625 7.88232 80.076 7.88232 80.1897 7.84424C80.3412 7.80664 80.4736 7.73096 80.5684 7.61719C80.7388 7.40869 80.7955 7.125 80.682 6.87891L79.811 4.7959L81.0417 2.88379C81.1742 2.67529 81.1742 2.37256 81.0227 2.14551Z" fill="#F25C3A" fill-opacity="1.000000" fill-rule="nonzero"/>
	</g>
</svg>
