<svg width="98.022949" height="98.022949" viewBox="0 0 98.0229 98.0229" fill="none" xmlns="http://www.w3.org/2000/svg" xmlns:xlink="http://www.w3.org/1999/xlink">
	<desc>
			Created with Pixso.
	</desc>
	<defs>
		<clipPath id="clip342_1605">
			<rect id="virus-bug" width="98.023003" height="98.023003" fill="white" fill-opacity="0"/>
		</clipPath>
	</defs>
	<rect id="virus-bug" width="98.023003" height="98.023003" fill="#FFFFFF" fill-opacity="0"/>
	<g clip-path="url(#clip342_1605)">
		<path id="Vector" d="M49.011 8.68896C39.0281 8.68896 30.47 15.2988 26.853 24.7012L71.168 24.7012C67.553 15.2998 58.994 8.68896 49.011 8.68896Z" fill="#F25C3A" fill-opacity="1.000000" fill-rule="nonzero"/>
		<path id="Vector" d="M93.3571 48.938L79.496 48.938C80.269 45.8101 80.733 42.5151 80.844 39.1079C85.7841 36.1411 91.4609 30.9399 92.8719 22.313C93.288 19.769 91.562 17.3711 89.019 16.9561C86.474 16.542 84.08 18.2661 83.663 20.8071C82.9041 25.4468 79.9399 28.5308 77.03 30.5029L21.009 30.5029C18.094 28.5288 15.1169 25.4448 14.359 20.8071C13.943 18.2651 11.551 16.542 9.00195 16.9561C6.45898 17.3721 4.73401 19.769 5.15002 22.313C6.56104 30.939 12.2371 36.1411 17.178 39.1079C17.2889 42.5151 17.752 45.8101 18.526 48.938L4.66504 48.938C2.08899 48.938 0 51.0269 0 53.604C0 56.1812 2.08899 58.27 4.66504 58.27L21.9871 58.27C23.298 60.8472 24.842 63.2251 26.589 65.353C20.489 69.9238 14.776 77.9009 12.005 82.0981C10.585 84.2461 11.176 87.1401 13.325 88.561C14.1169 89.084 15.011 89.334 15.8929 89.334C17.407 89.334 18.892 88.5991 19.79 87.2417C24.4141 80.252 30.376 73.646 33.536 71.77C37.332 74.3711 41.609 76.0308 46.158 76.5288L46.158 41.2969L51.866 41.2969L51.866 76.5288C56.4091 76.0308 60.679 74.376 64.474 71.7808C67.6689 73.6709 73.62 80.2642 78.234 87.2417C79.132 88.5981 80.6169 89.334 82.13 89.334C83.0129 89.334 83.906 89.084 84.698 88.561C86.8459 87.1411 87.438 84.249 86.0179 82.0981C83.244 77.8979 77.545 69.9141 71.439 65.3472C73.184 63.2197 74.725 60.8438 76.035 58.27L93.3571 58.27C95.932 58.27 98.022 56.1812 98.022 53.604C98.022 51.0269 95.934 48.938 93.3571 48.938Z" fill="#F25C3A" fill-opacity="1.000000" fill-rule="nonzero"/>
	</g>
</svg>
